<?xml version="1.0" encoding="utf-8"?>
<!DOCTYPE svg PUBLIC "-//W3C//DTD SVG 20010904//EN" "http://www.w3.org/TR/2001/REC-SVG-20010904/DTD/svg10.dtd">
<svg version="1.0" xmlns="http://www.w3.org/2000/svg" width="1833px" height="1809px" viewBox="0 0 1833 1809" preserveAspectRatio="xMidYMid meet">
 <g fill="#c72121" fill-rule="evenodd">
  <path d="M1826 1342 L1826 1341.3C1826 1341 1826.7 1341.1 1827.7 1341.5 C1828.7 1341.9 1830.2 1342.4 1831.2 1342.6 L1833 1343L1833 1343 L1833 1343.7C1833 1344.1 1832.8 1344.7 1832.7 1345 C1832.6 1345.4 1831.2 1345.1 1829.8 1344.5 C1828.3 1343.9 1826.8 1343.1 1826.5 1342.7 L1826 1342"/>
  <path d="M1820 1340 L1819.3 1339.5C1818.9 1339.2 1818.5 1339 1818.4 1339 C1818.2 1339 1817.4 1338.7 1816.5 1338.3 C1815.7 1338 1815 1337.3 1815 1336.8 L1815 1336L1815 1336 L1815 1335.4C1815 1335.1 1816.1 1335.6 1817.5 1336.5 C1818.8 1337.4 1820 1338.6 1820 1339.1 C1820 1339.6 1820.2 1340.2 1820.5 1340.5 L1821 1341L1820.5 1340.5 1820.3 1339.8 "/>
  <path d="M1804 1331 L1804 1329.8C1804 1329.1 1804.8 1329.4 1806 1330.5 C1807.1 1331.4 1808 1332.4 1808 1332.6 L1808 1333L1808 1333 L1806 1332L1804 1331"/>
  <path d="M1793 1324 L1792 1323.5L1791 1323L1791 1323 L1790.5 1323C1790.2 1323 1790 1322.8 1790 1322.6 C1790 1322.4 1789.7 1322 1789.5 1321.6 L1789 1321L1789 1321 L1788.5 1321C1788.2 1321 1787.7 1321 1787.5 1321 C1787.2 1321 1786.6 1320.3 1786 1319.5 L1785 1318L1785 1318 L1785 1317.3C1785 1316.9 1786.2 1317.7 1787.7 1319 C1789.2 1320.4 1790.7 1321.8 1791 1322.3 C1791.4 1322.7 1792.3 1323.2 1793.2 1323.3 C1794.1 1323.4 1795.5 1324.1 1796.3 1324.9 C1797.2 1325.6 1798 1326.4 1798 1326.6 L1798 1327L1798 1327 L1795.5 1325.5L1793 1324"/>
  <path d="M1774 1311 L1773.3 1310.5C1772.9 1310.2 1772.4 1310 1772.2 1310 C1771.9 1310 1770.4 1308.8 1768.8 1307.5 L1766 1305L1766 1305 L1765.7 1305C1765.5 1305 1764.4 1304.2 1763.2 1303.4 C1762 1302.5 1761 1301.5 1761 1301.2 C1761 1300.8 1760.2 1300.1 1759.2 1299.6 C1758.2 1299 1756.2 1297.1 1754.7 1295.3 L1752 1292L1752 1292 L1751.5 1292C1751.2 1292 1750.7 1292 1750.5 1292 L1750 1292L1750 1291 L1751.7 1291.5C1752.7 1291.7 1756.5 1294.8 1760.2 1298.2 C1763.9 1301.6 1767.5 1304.6 1768.2 1304.7 C1768.9 1304.9 1770.7 1306.4 1772.2 1308 C1773.7 1309.6 1775 1311.2 1775 1311.5 L1775 1312L1774.5 1311.5 1774.3 1310.8 "/>
  <path d="M1746 1286 L1744.5 1285L1743 1284L1743 1284 L1743.7 1284C1744.1 1284 1745.5 1284.8 1746.7 1285.7 C1747.9 1286.7 1749 1287.8 1749 1288.2 L1749 1289L1749 1289 L1747.5 1287.5L1746 1286"/>
  <path d="M1738 1277 L1739.9 1278.7C1741 1279.7 1742.1 1280.7 1742.4 1281 C1742.7 1281.4 1743 1281.9 1743 1282.3 L1743 1283L1743 1283 L1742.3 1282.5C1741.9 1282.2 1740.6 1281.3 1739.3 1280.4 C1738 1279.6 1737.1 1278.4 1737.4 1277.9 L1738 1277"/>
  <path d="M1732 1269 L1733.7 1270.5C1734.6 1271.3 1735.5 1272 1735.7 1272 C1735.8 1272 1736 1272.2 1736 1272.5 C1736 1272.7 1736 1273.2 1736 1273.5 L1736 1274L1736 1274 L1735.7 1274C1735.5 1274 1734.4 1273.2 1733.2 1272.4 C1731.9 1271.5 1731.1 1270.4 1731.4 1269.9 L1732 1269"/>
  <path d="M1730 1266 L1729.3 1265.5C1728.9 1265.2 1728.5 1265 1728.3 1265 C1728.1 1265 1727.3 1264.1 1726.5 1263 L1725 1261L1725 1261 L1727.5 1262.7C1728.8 1263.7 1730 1264.7 1730 1265 C1730 1265.4 1730.2 1265.8 1730.5 1266.1 C1730.7 1266.4 1731 1266.9 1731 1267.3 L1731 1268L1730 1268 L1730 1267.5C1730 1267.2 1730 1266.7 1730 1266.5 L1730 1266"/>
  <path d="M1724 1258 L1723.7 1257.9C1723.6 1257.9 1722.7 1257.4 1721.7 1256.9 C1720.7 1256.3 1720 1255.2 1720 1254.4 L1720 1253L1720 1253 L1722 1254.7C1723.1 1255.7 1724 1256.8 1724 1257.1 C1724 1257.4 1724.2 1257.9 1724.5 1258.3 L1725 1259L1724.5 1258.5 1724.3 1257.8 "/>
  <path d="M1714 1243 L1715.5 1244.5L1717 1246L1717 1246 L1715.5 1244.5L1714 1243"/>
  <path d="M1712 1236 L1711.6 1236C1711.4 1236 1710.3 1234.9 1709.1 1233.6 C1707.9 1232.3 1707.2 1231 1707.4 1230.6 L1708 1230L1708 1230 L1707.5 1230C1707.2 1230 1707 1229.5 1707 1229 C1707 1228.4 1707.2 1228 1707.5 1228 L1708 1228L1708 1228 L1708 1228.8C1708 1229.2 1709.1 1231.1 1710.5 1233 C1711.8 1234.8 1713 1236.7 1713 1237.1 L1713 1238L1712 1238 L1712 1237.5C1712 1237.2 1712 1236.7 1712 1236.5 L1712 1236"/>
  <path d="M1702 1216 L1704 1219.5L1706 1223L1706 1223 L1705.5 1223C1705.3 1223 1704.2 1221.8 1703 1220.3 C1701.9 1218.9 1701.2 1217.3 1701.5 1216.8 L1702 1216"/>
  <path d="M1696 1199 L1698 1203L1700 1207L1700 1207 L1699.7 1206.9C1699.6 1206.9 1699 1206.6 1698.3 1206.2 C1697.7 1205.8 1696.7 1204.4 1696.1 1203.2 C1695.4 1201.9 1695.1 1200.5 1695.4 1199.9 L1696 1199"/>
  <path d="M1691 1161 L1691.8 1168.2C1692.3 1172.2 1693 1176.7 1693.3 1178.2 L1694 1181L1694 1181 L1693.4 1181C1693.1 1181 1692.2 1179.3 1691.4 1177.4 C1690.5 1175.4 1689.6 1170.9 1689.3 1167.4 C1688.8 1162.9 1689 1161 1689.8 1161 L1691 1161"/>
  <path d="M1691 1135 L1691 1147L1691 1159L1691 1159 L1690.5 1159C1690.2 1159 1689.8 1159 1689.6 1159 C1689.4 1159 1689.5 1153.7 1689.7 1147.2 C1690 1140.7 1690.3 1135.3 1690.6 1135.2 L1691 1135"/>
  <path d="M1694 1105 L1694 1106.2C1694 1106.9 1693.5 1111.3 1693 1116 C1692.4 1120.6 1691.7 1126.1 1691.5 1128.2 L1691 1132L1691 1132 L1690.5 1132C1690.3 1132 1689.8 1131.5 1689.5 1131 C1689.2 1130.6 1689.4 1125.5 1690 1119.8 C1690.5 1114.1 1691.2 1108.4 1691.5 1107.2 C1691.8 1106 1692.4 1105 1693 1105 L1694 1105"/>
  <path d="M840 1079 L844.2 1078.4C846.5 1078.1 853.9 1078.5 860.5 1079.4 C871.4 1080.9 873.7 1080.9 884 1079.6 C890.3 1078.8 898.7 1077.9 902.7 1077.6 C906.7 1077.4 910 1077.4 910 1077.6 C910 1077.8 910 1078.2 910 1078.5 L910 1079L910 1079 L908.9 1079C908.3 1079 902.3 1079.7 895.6 1080.6 C888.9 1081.5 878.7 1082.3 873 1082.3 C867.2 1082.3 857.7 1081.7 852 1081 C846.2 1080.2 841.1 1079.6 840.7 1079.8 C840.3 1079.9 840 1079.7 840 1079.5 L840 1079"/>
  <path d="M809 1073 L809 1071.9C809 1071.4 810.7 1071.8 812.9 1072.9 C815.1 1074 817.5 1075 818.3 1075 C819.1 1075 819.9 1075.3 820.1 1075.7 C820.3 1076.1 820.8 1076.8 821.2 1077.2 L822 1078L822 1078 L815.5 1075.5L809 1073"/>
  <path d="M956 1073 L955 1073C954.5 1073 949.4 1074.1 943.5 1075.5 C937.7 1076.8 932.7 1078 932.5 1078 L932 1078L932 1078 L932 1077.5C932 1077.2 932 1076.6 932 1076.1 C932 1075.6 937 1074.3 943.1 1073.1 C949.3 1072 954.7 1071.3 955.1 1071.6 C955.6 1071.8 956 1072.3 956 1072.5 L956 1073"/>
  <path d="M803 1072 L802 1071.5L801 1071L801 1071 L797.5 1069L794 1067L794 1067 L794 1066.5C794 1066.2 794 1065.7 794 1065.3 C794 1065 795.2 1065.5 796.7 1066.5 C798.2 1067.4 800.3 1069.1 801.2 1070.1 C802.2 1071.1 803.2 1072 803.5 1072 L804 1072L804 1073 L803.5 1073C803.2 1073 803 1072.7 803 1072.5 L803 1072"/>
  <path d="M979 1067 L975.7 1067.6C973.9 1067.9 970.7 1069 968.5 1070.1 C966.3 1071.1 964.2 1072 963.8 1072 L963 1072L963 1072 L963 1071.5C963 1071.2 963 1070.7 963 1070.4 C963 1070.1 964.9 1069 967.2 1068 C969.5 1067 973.1 1065.9 975.2 1065.5 C977.6 1065.1 979 1065.2 979 1065.9 L979 1067"/>
  <path d="M1696 1072 L1696 1068.7C1696 1067 1695.7 1064.8 1695.5 1064 C1695.2 1063.1 1695.6 1056.8 1696.4 1050 C1697.3 1043.1 1698.4 1037.3 1698.9 1037.2 L1700 1037L1700 1037 L1700 1039.1C1700 1040.3 1699.3 1047.6 1698.4 1055.4 C1697.6 1063.1 1696.7 1070 1696.4 1070.7 L1696 1072"/>
  <path d="M1002 1060 L994.5 1063L987 1066L987 1066 L987 1065.5C987 1065.2 987 1064.7 987 1064.4 C987 1064.1 988.9 1063 991.2 1062 C993.5 1061 996.9 1059.9 998.7 1059.6 C1000.5 1059.3 1002 1059.2 1002 1059.5 L1002 1060"/>
  <path d="M783 1061 L783 1060.5C783 1060.2 783.3 1060 783.6 1060 C784 1060 785.1 1060.7 786.1 1061.6 C787.1 1062.5 788 1063.4 788 1063.6 L788 1064L788 1064 L787.5 1064C787.2 1064 786.6 1064 786.1 1064 C785.6 1064 784.7 1063.3 784.1 1062.5 L783 1061"/>
  <path d="M1025 1055 L1024.2 1055C1023.8 1055 1021.3 1055.8 1018.7 1056.7 C1016.2 1057.7 1013.7 1058.8 1013.3 1059.2 C1012.9 1059.6 1012.2 1060 1011.8 1060 L1011 1060L1011 1060 L1011 1059.3C1011 1058.9 1011.4 1058.1 1012 1057.4 C1012.5 1056.8 1015.5 1055.4 1018.5 1054.5 C1021.6 1053.5 1024.3 1052.9 1024.5 1053.2 C1024.8 1053.4 1025 1053.9 1025 1054.3 L1025 1055"/>
  <path d="M771 1055 L771 1054.3C771 1053.9 771.1 1053.5 771.3 1053.3 C771.5 1053.1 772.8 1053.9 774.3 1055 C775.8 1056.2 777 1057.3 777 1057.5 L777 1058L777 1058 L776.5 1058C776.2 1058 775.6 1058 775.3 1058 C774.9 1058 773.8 1057.3 772.8 1056.5 L771 1055"/>
  <path d="M768 1053 L767.3 1052.5C766.9 1052.2 766.4 1052 766.1 1052 C765.8 1052 764.9 1051.3 764.2 1050.5 L763 1049L763 1049 L763 1047.7C763 1047 764.3 1047.9 766 1049.7 C767.6 1051.5 769 1053.2 769 1053.5 L769 1054L768.5 1053.5 768.3 1052.8 "/>
  <path d="M1045 1049 L1040.4 1050.6C1037.9 1051.5 1035.6 1052.6 1035.4 1053.1 C1035.1 1053.6 1034.2 1054 1033.4 1054 L1032 1054L1032 1054 L1032 1053.5C1032 1053.2 1032 1052.8 1032 1052.6 C1032 1052.3 1033.6 1051.3 1035.7 1050.2 C1037.8 1049.1 1040.7 1048 1042.2 1047.6 C1043.8 1047.2 1045 1047.3 1045 1047.9 L1045 1049"/>
  <path d="M1066 1043 L1061.2 1044.6C1058.6 1045.5 1056 1046.6 1055.5 1047.1 C1055 1047.6 1054.2 1048 1053.8 1048 L1053 1048L1053 1048 L1053 1047.2C1053 1046.8 1054 1045.7 1055.2 1044.8 C1056.4 1043.8 1059.2 1042.6 1061.4 1042.1 C1063.6 1041.5 1065.5 1041.2 1065.7 1041.3 C1065.8 1041.5 1066 1041.9 1066 1042.3 L1066 1043"/>
  <path d="M742 1029 L751 1037.5L760 1046L760 1046 L759.5 1046C759.2 1046 758.6 1046 758.2 1046 C757.8 1046 756.5 1044.9 755.3 1043.7 C754 1042.5 750.5 1038.6 747.5 1035.2 L742 1029"/>
  <path d="M1087 1037 L1082.2 1038.6C1079.6 1039.5 1077 1040.6 1076.5 1041.1 C1076 1041.6 1075 1042 1074.3 1042 L1073 1042L1073 1042 L1073 1041.3C1073 1040.9 1073.4 1040.1 1073.9 1039.6 C1074.3 1039.2 1077.3 1037.9 1080.5 1036.8 C1083.7 1035.8 1086.4 1035.1 1086.6 1035.3 C1086.8 1035.5 1087 1035.9 1087 1036.3 L1087 1037"/>
  <path d="M1108 1031 L1106.7 1031C1106 1031 1103.2 1032.1 1100.5 1033.5 C1097.8 1034.8 1095.2 1036 1094.8 1036 L1094 1036L1094 1036 L1094 1035.5C1094 1035.2 1094 1034.7 1094 1034.5 C1094 1034.2 1095.6 1033.1 1097.7 1032.1 C1099.8 1031.1 1102.9 1030 1104.7 1029.6 C1106.6 1029.3 1108 1029.4 1108 1030 L1108 1031"/>
  <path d="M1128 1024 L1121.5 1027L1115 1030L1115 1030 L1115 1029.4C1115 1029 1115.2 1028.3 1115.5 1027.8 C1115.8 1027.3 1117.5 1026.3 1119.3 1025.6 C1121 1024.9 1123.7 1024 1125.2 1023.6 C1126.7 1023.2 1128 1023.1 1128 1023.4 L1128 1024"/>
  <path d="M737 1023 L739 1024.5L741 1026L741 1026 L740.5 1026C740.2 1026 739.8 1026 739.6 1026 C739.4 1026 738.7 1025.3 738.1 1024.5 L737 1023"/>
  <path d="M1149 1019 L1144.2 1020.6C1141.6 1021.5 1139 1022.6 1138.5 1023.1 C1138 1023.6 1137.2 1024 1136.8 1024 L1136 1024L1136 1024 L1136 1023.3C1136 1022.9 1136.4 1022.1 1137 1021.4 C1137.6 1020.6 1140.4 1019.4 1143.2 1018.5 C1146.1 1017.7 1148.5 1017.2 1148.7 1017.3 C1148.8 1017.5 1149 1017.9 1149 1018.3 L1149 1019"/>
  <path d="M1156 1018 L1156 1017.5C1156 1017.2 1156 1016.7 1156 1016.5 C1156 1016.2 1157.6 1015.1 1159.7 1014.1 C1161.8 1013.1 1164.9 1012 1166.7 1011.6 C1168.6 1011.3 1170 1011.4 1170 1012 L1170 1013L1170 1013 L1168.9 1013C1168.3 1013 1165.2 1014.3 1161.9 1015.9 C1158.6 1017.5 1156 1018.6 1156 1018.4 L1156 1018"/>
  <path d="M1696 997 L1697.3 1000.7C1698.1 1002.8 1698.9 1007.2 1699.3 1010.5 C1699.6 1013.8 1699.9 1016.6 1699.9 1016.7 L1700 1017L1700 1017 L1699.3 1017C1698.9 1017 1698.4 1016.7 1698.2 1016.5 C1697.9 1016.2 1697.1 1012.1 1696.4 1007.2 C1695.6 1002.4 1695 998.1 1695 997.7 C1695 997.3 1695.2 997 1695.5 997 L1696 997"/>
  <path d="M1192 1007 L1190.7 1007C1190 1007 1186.8 1008.1 1183.5 1009.5 C1180.2 1010.8 1177.3 1011.9 1177.2 1011.9 L1177 1012L1177 1012 L1177 1011.5C1177 1011.2 1177 1010.8 1177 1010.6 C1177 1010.3 1178.7 1009.2 1180.8 1008.1 C1183 1007 1186.1 1006 1187.7 1005.8 C1189.4 1005.6 1191 1005.8 1191.3 1006.2 L1192 1007"/>
  <path d="M726 1004 L727.9 1006.2C729 1007.4 729.9 1008.6 729.9 1008.7 C729.9 1008.8 730 1009.2 730 1009.5 L730 1010L730 1010 L729.5 1010C729.2 1010 728.1 1009 727 1007.8 C725.9 1006.6 725 1005.2 725 1004.8 C725 1004.3 725.2 1004 725.5 1004 L726 1004"/>
  <path d="M1211 1001 L1207.2 1002.3C1205.1 1003.1 1202.2 1004.2 1200.7 1004.8 L1198 1006L1198 1006 L1198 1005.3C1198 1004.9 1198.4 1004.1 1199 1003.4 C1199.6 1002.6 1202.4 1001.4 1205.2 1000.5 C1208.1 999.7 1210.5 999.2 1210.7 999.3 C1210.8 999.5 1211 999.9 1211 1000.3 L1211 1001"/>
  <path d="M1217 1000 L1217.5 1000C1217.7 1000 1218 999.5 1218 999 C1218 998.4 1219.6 997.1 1221.7 996.1 C1223.8 995.1 1226.9 994 1228.7 993.6 C1230.5 993.3 1232 993.2 1232 993.5 C1232 993.7 1232 994.2 1232 994.5 L1232 995L1232 995 L1230.7 995C1230 995 1227.2 996.1 1224.5 997.5 C1221.7 998.8 1219.1 999.9 1218.7 999.9 L1218 1000L1218 1000 L1218 1000.5C1218 1000.7 1217.7 1001 1217.5 1001 L1217 1001"/>
  <path d="M720 989 L722 992.5L724 996L724 996 L723.6 996C723.4 996 722.3 994.9 721.1 993.6 C719.9 992.4 719 990.8 719 990.1 C719 989.5 719.2 989 719.5 989 L720 989"/>
  <path d="M1253 988 L1246 991L1239 994L1239 994 L1239 993.5C1239 993.2 1239 992.7 1239 992.5 C1239 992.2 1240.6 991.1 1242.7 990.1 C1244.8 989.1 1247.9 988 1249.7 987.6 C1251.5 987.3 1253 987.2 1253 987.5 L1253 988"/>
  <path d="M1274 983 L1268.7 984.8C1265.8 985.8 1262.7 986.9 1261.7 987.3 L1260 988L1260 988 L1260 987.4C1260 987 1260.2 986.3 1260.5 985.8 C1260.8 985.3 1262.5 984.3 1264.3 983.6 C1266 982.9 1268.9 982 1270.7 981.6 C1272.6 981.3 1274 981.4 1274 982 L1274 983"/>
  <path d="M1293 977 L1288.7 978.5C1286.4 979.4 1284 980.5 1283.5 981 C1283 981.5 1282.2 982 1281.8 982 L1281 982L1281 982 L1281 981.3C1281 980.9 1281.4 980.1 1281.9 979.5 C1282.5 978.8 1284.7 977.7 1286.8 977 C1289 976.3 1291.2 976 1291.8 976.3 L1293 977"/>
  <path d="M1689 971 L1689.9 971.5C1690.4 971.7 1691.3 973.4 1691.9 975.2 C1692.5 977 1693 978.8 1693 979.2 L1693 980L1693 980 L1692.5 980C1692.2 980 1691.3 978.6 1690.5 977 C1689.6 975.4 1689 973.4 1689 972.5 L1689 971"/>
  <path d="M714 967 L716 972.5L718 978L718 978 L717.6 978C717.4 978 716.8 977.4 716.2 976.7 C715.7 976 714.7 973.9 714.1 972.1 C713.5 970.2 713 968.3 713 967.8 C713 967.3 713.2 967 713.5 967 L714 967"/>
  <path d="M1313 971 L1307 973.5L1301 976L1301 976 L1301 975.5C1301 975.2 1301 974.7 1301 974.4 C1301 974.1 1302.9 973 1305.2 971.9 C1307.5 970.9 1310.2 970 1311.2 970 C1312.2 970 1313 970.2 1313 970.5 L1313 971"/>
  <path d="M1403 947 L1403 945.8C1403 945.2 1403.5 944 1404.1 943.2 C1405.1 942.1 1405 941.6 1403.9 940.9 C1403.1 940.4 1400.4 939.7 1398 939.4 C1395.5 939 1390.4 937.4 1386.8 935.8 C1383.1 934.2 1379.4 933 1378.5 933 C1377.6 933 1375.1 932 1372.9 930.9 C1370.8 929.8 1366.5 928.3 1363.3 927.5 C1360.2 926.6 1356.5 925.3 1355.2 924.4 C1353.9 923.5 1350.5 922.1 1347.8 921.3 C1345.1 920.5 1340.8 918.7 1338.3 917.4 C1335.7 916.1 1332.9 915 1331.9 915 C1331 915 1327.4 913.6 1323.8 911.9 C1320.3 910.2 1316.3 908.1 1315 907.4 C1313.6 906.6 1310.9 905.3 1309 904.5 C1307 903.6 1304.3 902.3 1303 901.5 C1301.6 900.6 1298.9 899.3 1297 898.5 C1295 897.6 1292.3 896.3 1291 895.5 C1289.6 894.6 1286.6 893.1 1284.4 892 C1282.1 890.9 1279.1 889.1 1277.7 888 C1276.3 886.9 1274.1 885.5 1272.8 884.9 C1271.5 884.4 1269 882.9 1267.3 881.7 C1265.5 880.5 1261.8 878.1 1258.9 876.5 C1256.1 874.8 1251.6 872 1248.9 870.2 C1246.2 868.4 1243.6 867 1243.1 867 C1242.6 867 1241.6 866.2 1240.8 865.3 C1240.1 864.4 1237.7 862.5 1235.6 861.1 C1233.4 859.6 1230 857.3 1227.9 856 C1225.9 854.6 1219.5 849.5 1213.8 844.6 C1208.1 839.8 1192.7 824.9 1179.5 811.6 C1166.3 798.3 1153 784.3 1150 780.5 C1147 776.7 1142.4 770.3 1139.7 766.3 C1137.1 762.3 1134.5 758.8 1134 758.5 C1133.4 758.1 1132.1 755.9 1131.1 753.5 C1130 751.2 1128.7 748.9 1128 748.5 C1127.4 748.1 1126.2 746.2 1125.4 744.1 C1124.5 742.1 1123 739.6 1122 738.5 C1121 737.4 1119.7 735 1119.1 733.2 C1118.5 731.3 1117.2 728.6 1116.1 727.1 C1115 725.7 1113.7 722.6 1113 720.3 C1112.4 718 1111.3 715.6 1110.4 714.9 C1109.6 714.2 1108.2 711.2 1107.3 708.1 C1106.4 705 1104.9 701.1 1103.9 699.5 C1102.9 697.8 1101.8 694.7 1101.4 692.5 C1101 690.3 1099.8 686.4 1098.7 684 C1097.6 681.5 1095.9 675.4 1094.8 670.5 C1093.8 665.5 1092.3 659.1 1091.5 656.2 C1090.7 653.4 1089.5 642.9 1088.9 632.9 C1087.9 618.4 1087.9 611.5 1088.9 598.6 C1089.6 589.7 1090.8 580.2 1091.6 577.5 C1092.4 574.7 1093.9 567.7 1094.9 562 C1096 556.2 1097.7 549.2 1098.8 546.5 C1099.8 543.7 1101.1 539.4 1101.5 537 C1101.9 534.5 1103.2 530.4 1104.4 528 C1105.7 525.5 1107 521.9 1107.4 520 C1107.8 518 1109 515 1110.1 513.3 C1111.1 511.6 1112.6 508.1 1113.3 505.6 C1114.1 503.1 1115.6 499.8 1116.7 498.3 C1117.8 496.7 1119 494.2 1119.4 492.6 C1119.7 491 1121.2 488.1 1122.5 486.1 C1123.8 484.1 1125 481.8 1125 480.9 C1125 480.1 1126.3 477.6 1127.9 475.4 C1129.5 473.2 1131.1 470.2 1131.5 468.7 C1131.8 467.2 1132.8 465.5 1133.7 464.8 C1134.5 464.1 1136.3 461.3 1137.6 458.5 C1139 455.7 1141.1 451.6 1142.3 449.4 C1143.5 447.2 1145.4 444 1146.5 442.4 C1147.6 440.8 1149.3 437.9 1150.3 436 C1151.2 434 1153.3 430.4 1155 428 C1156.6 425.5 1158.7 422.2 1159.7 420.6 C1160.7 419 1162.4 416.3 1163.7 414.6 C1164.9 412.9 1166.8 409.9 1167.9 408 C1169.1 406 1171.2 402.6 1172.7 400.4 C1174.2 398.1 1176.4 394.7 1177.6 392.9 C1178.8 391 1180.8 388.1 1181.9 386.5 C1183.1 384.8 1186.9 379.1 1190.5 373.7 C1194 368.3 1197 363.5 1197 363.1 C1197 362.6 1198.3 360.5 1200 358.4 C1201.6 356.4 1203 354.1 1203 353.4 C1203 352.8 1204.3 350.5 1206 348.4 C1207.6 346.4 1209 344.1 1209 343.4 C1209 342.7 1210 340.8 1211.3 339.3 C1212.6 337.7 1214.5 334.9 1215.3 332.9 C1216.2 331 1218 328 1219.2 326.2 C1220.4 324.5 1222.7 321.1 1224.1 318.7 C1225.6 316.4 1227.1 313.2 1227.5 311.8 C1227.8 310.3 1229 308.3 1230 307.4 C1231 306.5 1232.4 304.1 1233.1 302.1 C1233.7 300.1 1235.1 297.2 1236.1 295.8 C1237.1 294.3 1238.7 291.2 1239.5 288.8 C1240.3 286.5 1241.6 283.9 1242.3 283 C1243.1 282.1 1244.3 279.7 1245 277.5 C1245.6 275.4 1247 272.2 1248 270.5 C1249 268.8 1250.3 265.5 1250.9 263.2 C1251.5 260.8 1253.2 256.8 1254.5 254.3 C1255.8 251.7 1257 248.8 1257 247.8 C1257 246.7 1258.2 242.4 1259.8 238.1 C1261.4 233.9 1263.5 227.5 1264.4 224 C1265.3 220.4 1266.7 215 1267.5 212 C1268.2 208.9 1269.8 201.5 1270.9 195.5 C1272 189.4 1273.4 179.7 1273.9 173.8 C1274.3 168 1274.6 156.5 1274.3 148.3 C1274.1 140 1272.8 125.8 1271.3 116 C1269.9 106.3 1268.2 95.8 1267.4 92.5 C1266.7 89.2 1265.3 83.5 1264.4 80 C1263.5 76.4 1261.8 71.2 1260.7 68.5 C1259.6 65.7 1258.2 61.2 1257.5 58.5 C1256.7 55.7 1255 51 1253.6 48 C1252.1 44.9 1251 41.8 1251 41 C1251 40.2 1249.6 36.6 1247.9 33 C1246.2 29.4 1244.2 25.3 1243.4 24 C1242.6 22.6 1240.9 19.2 1239.6 16.4 C1238.2 13.6 1236 9.6 1234.5 7.5 C1233.1 5.4 1232 2.8 1232 1.8 L1232 0L1232 0 L1532.5 0C1833 0 1833 0 1833 464 C1833 719.2 1833 928.2 1833 928.5 L1833 929L1833 929 L1829.7 929.6C1827.9 929.9 1825.2 930.8 1823.7 931.6 C1822.3 932.3 1820.1 933 1818.9 933 C1817.7 933 1812.9 934.3 1808.1 935.9 C1803.3 937.5 1797.9 939.1 1796 939.5 C1794 939.8 1789.8 941.2 1786.5 942.4 C1783.2 943.7 1778.2 945 1775.5 945.4 C1772.7 945.8 1767.6 946.9 1764.2 948 C1760.7 949 1753.7 950.6 1748.6 951.4 C1743.6 952.2 1737.4 953.6 1735 954.4 C1732.5 955.3 1724.2 956.9 1716.5 958 C1708.8 959.1 1699.5 960.6 1696 961.3 C1689.8 962.4 1689.5 962.6 1689.5 965.2 C1689.5 966.7 1689.4 968 1689.2 968 L1689 968L1689 968 L1688.3 967.5C1688 967.2 1686.9 966.3 1685.9 965.4 C1684.7 964.3 1683.4 964 1682.2 964.5 C1681.3 964.9 1678.9 965.1 1676.9 965 C1675 964.9 1668.9 965.5 1663.4 966.4 C1657.9 967.3 1642.8 968.4 1629.8 968.8 C1616.8 969.3 1605.6 970.1 1604.9 970.5 C1604.2 970.9 1598.5 971.3 1592.3 971.4 C1586.1 971.4 1581 971.2 1581 970.8 C1581 970.4 1579.5 970.1 1577.7 970.1 C1575.9 970.1 1567 969.7 1558 969.1 C1548.9 968.5 1537.6 967.4 1533 966.6 C1528.3 965.8 1522.3 964.9 1519.8 964.6 C1516.6 964.2 1514.9 964.5 1514.6 965.3 C1514.3 966.2 1513.8 966.2 1512.2 965.3 C1511.1 964.6 1506.4 963.6 1501.8 962.9 C1497.2 962.3 1490.7 961.2 1487.3 960.4 C1483.9 959.6 1476.7 958.5 1471.3 957.9 C1465.9 957.4 1458.3 956 1454.5 955 C1450.6 953.9 1443.5 952.5 1438.7 952 C1433.9 951.4 1428 950 1425.5 949 C1423 947.9 1418.8 946.7 1416.1 946.4 C1413.4 946 1409.4 946 1407.1 946.3 L1403 947"/>
  <path d="M1335 965 L1330 966.9C1327.3 967.9 1324.6 969 1324 969.4 L1323 970L1323 970 L1323 969.3C1323 968.9 1323.5 968 1324.1 967.3 C1324.7 966.6 1326.9 965.5 1329 964.8 C1331 964.2 1333.2 964 1333.8 964.3 L1335 965"/>
  <path d="M1355 959 L1349 961.5L1343 964L1343 964 L1343 963.5C1343 963.2 1343 962.7 1343 962.5 C1343 962.2 1344.2 961.4 1345.7 960.6 C1347.2 959.8 1349.9 958.9 1351.7 958.5 C1353.5 958.1 1355 958.1 1355 958.4 L1355 959"/>
  <path d="M1377 954 L1375.5 954C1374.7 954 1371.5 955.1 1368.4 956.5 C1365.2 957.8 1362.3 959 1361.8 959 C1361.3 959 1360.5 959 1360 959 L1359 959L1359 959 L1360.7 958.3C1361.7 958 1363.6 957 1365 956 C1366.3 955.1 1368.7 953.8 1370.2 953.2 C1371.8 952.5 1373.9 952 1375 952 C1376.1 952 1377 952.4 1377 953 L1377 954"/>
  <path d="M1397 948 L1396.2 948C1395.8 948 1393.3 948.8 1390.7 949.7 C1388.2 950.7 1385.7 951.8 1385.3 952.2 C1384.9 952.6 1384 953 1383.3 953 L1382 953L1382 953 L1382 952.5C1382 952.2 1383 951.4 1384.2 950.6 C1385.4 949.8 1388.6 948.4 1391.3 947.5 C1394 946.6 1396.4 946 1396.6 946.2 C1396.8 946.5 1397 946.9 1397 947.3 L1397 948"/>
  <path d="M714 907 L713.9 905.7C713.8 905 713.8 903.1 713.8 901.5 C713.8 900 714.3 898.3 714.9 898 C715.5 897.6 715.8 896.6 715.4 895.7 C715.1 894.9 715.5 893.9 716.4 893.6 L718 893L718 893 L717.4 895.2C717.1 896.4 716.4 899.6 715.8 902.2 C715.1 904.8 714.5 907 714.3 907 L714 907"/>
  <path d="M720 880 L719.9 879.2C719.9 878.8 720.1 877.5 720.4 876.2 C720.7 875 721.6 873.5 722.5 873 L724 872L724 872 L724 873C724 873.6 723.3 875.4 722.4 877 C721.6 878.6 720.7 880 720.4 880 L720 880"/>
  <path d="M729 857 L729.5 857C729.8 857 729.3 858 728.5 859.3 C727.6 860.6 726.7 861.9 726.4 862.3 L726 863L726 863 L725.5 863C725.2 863 725 862.5 725 862.1 C725 861.6 725.9 860.2 727 859.1 L729 857"/>
  <path d="M732 848 L732 847.5C732 847.2 732 846.7 732 846.5 C732 846.2 732 845.7 732 845.5 C732 845.2 732.9 844.5 734 844 L736 843L736 843 L734 845.5L732 848"/>
  <path d="M737 837 L737 836.3C737 835.9 737.1 835.4 737.3 835.1 C737.4 834.8 738.6 833.8 739.8 832.8 L742 831L742 831 L739.5 834L737 837"/>
  <path d="M743 826 L743 825.3C743 824.9 743.1 824.4 743.3 824.2 C743.5 823.9 744.7 822.9 745.8 821.8 L748 820L748 820 L745.5 823L743 826"/>
  <path d="M750 815 L752 813L754 811L754 811 L752 813L750 815"/>
  <path d="M756 806 L758 804L760 802L760 802 L760.7 801.2C761.1 800.8 760.4 801.7 759 803.2 C757.7 804.7 756.5 806 756.3 806 L756 806"/>
  <path d="M762 798.5 L762.1 798.1 L762 798 L764 796L766 794L766 794 L764.3 796C763.4 797.1 762.6 798 762.5 798 C762.4 798 762 798.2 761.6 798.5 L761 799"/>
  <path d="M768 790 L768 789.4C768 789.2 768.5 788 769.2 786.9 C769.9 785.8 771 785 771.7 785 L773 785L773 785 L771.3 787C770.4 788.1 769.6 789 769.5 789 C769.4 789 769 789.2 768.6 789.5 L768 790"/>
  <path d="M774 782 L776 780L778 778L778 778 L776 780L774 782"/>
  <path d="M779 776 L780.5 774.5L782 773L782 773 L783 772L784 771L784 771 L782.3 773C781.4 774.1 780.6 775 780.5 775 C780.4 775 780 775.2 779.6 775.5 L779 776"/>
  <path d="M785 769 L786.5 767.5L788 766L788 766 L789 765L790 764L790 764 L788.3 766C787.4 767.1 786.6 768 786.5 768 C786.4 768 786 768.2 785.6 768.5 L785 769"/>
  <path d="M792 761 L794 759L796 757L796 757 L796 756.5C796 756.2 796.2 756 796.5 756 L797 756L797 756 L797 755.5C797 755.2 797 754.7 797 754.4 C797 754.1 803.8 746.9 812.2 738.4 C820.6 729.9 842.2 708.4 860.2 690.5 L893 658L893 658 L889.3 662.2C887.3 664.5 867.2 685.1 844.6 708 C822.1 730.8 801 752 797.8 755.2 L792 761"/>
  <path d="M893 657 L895.5 654.5L898 652L898 652 L896.3 654C895.4 655.1 894.6 656 894.5 656 C894.4 656 894 656.2 893.6 656.5 L893 657"/>
  <path d="M899 650 L901.5 647.5L904 645L904 645 L902.3 647C901.4 648.1 900.6 649 900.5 649 C900.4 649 900 649.2 899.6 649.5 L899 650"/>
  <path d="M906 643.5 L906.1 643.1 L906 643 L906 642.5C906 642.2 906.2 642 906.5 642 L907 642L907 642 L907 641.5C907 641.2 907.2 641 907.5 641 L908 641L908 641 L909 640L910 639L910 639 L908.3 641C907.4 642.1 906.6 643 906.5 643 C906.4 643 906 643.2 905.6 643.5 L905 644"/>
  <path d="M917 630 L917 629.3C917 629 917.7 628.1 918.7 627.3 C919.7 626.6 920.8 626 921.2 626 L922 626L922 626 L920.7 627.5C920 628.3 919.1 629 918.8 629 C918.5 629 918 629.2 917.6 629.5 L917 630"/>
  <path d="M923 623 L923 622.3C923 621.9 923.5 621 924.1 620.3 C924.7 619.6 925.8 619 926.6 619 L928 619L928 619 L926.7 620.5C926 621.3 925.1 622 924.8 622 C924.5 622 924 622.2 923.6 622.5 L923 623"/>
  <path d="M929 616 L929 615.4C929 615.1 929.4 613.9 930 612.9 C930.6 611.8 931.7 611 932.5 611 L934 611L934 611 L932.3 613C931.4 614.1 930.6 615 930.5 615 C930.4 615 930 615.2 929.6 615.5 L929 616"/>
  <path d="M935 608 L937.5 605.5L940 603L940 603 L938.3 605C937.4 606.1 936.6 607 936.5 607 C936.4 607 936 607.2 935.6 607.5 L935 608"/>
  <path d="M941 600 L943.5 597.5L946 595L946 595 L944.3 597C943.4 598.1 942.6 599 942.5 599 C942.4 599 942 599.2 941.6 599.5 L941 600"/>
  <path d="M948 590 L950 588L952 586L952 586 L950 588L948 590"/>
  <path d="M953 582 L953 581.3C953 580.9 953.2 580.4 953.5 580 C953.8 579.7 954.9 578.7 956 577.7 L958 576L958 576 L955.5 579L953 582"/>
  <path d="M959 573 L959 572.5C959 572.2 959 571.7 959 571.5 C959 571.2 959 570.7 959 570.5 C959 570.2 959.9 569.5 961 569 L963 568L963 568 L961 570.5L959 573"/>
  <path d="M965 564.5 L965.1 564.1 L965 564 L965 563.5C965 563.2 965 562.7 965 562.5 C965 562.2 965 561.7 965 561.5 C965 561.2 965.9 560.3 967 559.5 L969 558L969.1 558.1 969.5 557.5 L970 557 L967 561L964 565"/>
  <path d="M972 550 L972 549.5C972 549.3 972.2 548.4 972.6 547.5 C972.9 546.7 973.8 546 974.6 546 L976 546L976 546 L974 548L972 550"/>
  <path d="M978 539 L978 538.2C978 537.8 978.2 536.7 978.5 535.7 C978.8 534.8 979.5 534 980 534 L981 534L981 534 L981.5 534C981.8 534 981.3 535.1 980.4 536.5 C979.5 537.8 978.5 539 978.3 539 L978 539"/>
  <path d="M983 526 L983 525.2C983 524.8 983.2 523.8 983.5 522.8 C983.8 521.9 984.7 520.6 985.5 520 L987 519L987 519 L987.5 519.3C987.7 519.5 987 521 985.8 522.5 C984.6 524.1 983.4 525.6 983.3 525.7 L983 526"/>
  <path d="M989 511 L989 510.5C989 510.2 989 509.5 989 509 C989 508.4 989.1 507.9 989.2 507.8 C989.3 507.8 990.5 506.6 991.7 505.3 L994 503L994 503 L991.5 507.5L989 512L988 512 L988 511.5C988 511.2 988.2 511 988.5 511 L989 511"/>
  <path d="M999 482 L999.5 482C999.7 482 1000 482.2 1000 482.5 C1000 482.8 999.3 484.6 998.5 486.5 C997.7 488.4 996.8 490 996.5 490 L996 490L996 490 L995.9 489.2C995.8 488.8 995.6 488.1 995.3 487.7 C995 487.3 995.3 487 996 487 C996.6 487 996.8 486.5 996.5 486 C996.1 485.4 996.3 485 996.8 485 C997.4 485 998.1 484.3 998.4 483.5 L999 482"/>
  <path d="M1001 465 L1001 463.4C1001 462.5 1000.7 461.4 1000.4 460.9 C1000.1 460.4 1000.3 460 1000.9 460 C1001.4 460 1001.6 459.3 1001.4 458.6 C1001.1 457.8 1001.3 453.6 1001.9 449.3 C1002.5 445 1003.4 441.3 1004 441.2 L1005 441L1005 441 L1004.4 448.2C1004.1 452.2 1003.3 457.5 1002.7 460 C1002.1 462.4 1001.5 464.6 1001.3 464.7 L1001 465"/>
  <path d="M1001 391 L1002.9 397.2C1003.9 400.6 1004.8 404.7 1004.9 406.2 C1004.9 407.7 1005 409.9 1005 411 L1005 413L1005 413 L1004.3 413C1003.9 413 1003.5 412.8 1003.4 412.7 C1003.3 412.6 1002.6 408.9 1002 404.5 C1001.3 400.1 1000.7 395.6 1000.6 394.5 C1000.6 393.4 1000.7 392.1 1000.8 391.7 L1001 391"/>
  <path d="M995 365 L997 369.5L999 374L999 374 L998.4 374C998.2 374 997 372.5 995.9 370.7 C994.8 368.9 994 366.9 994 366.2 C994 365.5 994.2 365 994.5 365 L995 365"/>
  <path d="M993 356 L992.5 356C992.3 356 991.2 354.4 990 352.6 C988.9 350.7 988 348.9 988 348.6 C988 348.2 988.2 348 988.5 348 L989 348L989 348 L989.9 348.7C990.4 349.1 991.6 351.3 992.5 353.5 C993.4 355.7 993.9 357.1 993.6 356.7 L993 356"/>
  <path d="M983 336 L984.9 338.2C986 339.4 986.9 340.6 986.9 340.7 C986.9 340.8 987 341.2 987 341.5 L987 342L987 342 L986.6 342C986.4 342 985.3 340.9 984.1 339.6 C982.9 338.3 982.2 337 982.4 336.6 L983 336"/>
  <path d="M977 327 L979 329L981 331L981 331 L979 329L977 327"/>
  <path d="M971 317 L972.7 318.5C973.6 319.3 974.5 320 974.7 320 C974.8 320 975 320.2 975 320.5 C975 320.7 975 321.2 975 321.5 L975 322L975 322 L974.5 322C974.2 322 973 321 971.9 319.9 C970.7 318.7 970 317.6 970.4 317.4 L971 317"/>
  <path d="M390 316 L387.7 315.5C386.5 315.2 383.1 314.6 380.2 314 C377.2 313.4 374.4 313 373.9 313 L373 313L373 313 L373 312C373 311.4 373.9 311 375.1 311 C376.2 311 379.9 311.7 383.3 312.5 C386.7 313.4 389.7 314.4 390 314.8 C390.2 315.2 390.8 315.8 391.2 316.2 L392 317L391 317 L390.5 317C390.2 317 390 316.7 390 316.5 L390 316"/>
  <path d="M492 312 L485.2 312.9C481.5 313.4 475.8 314.6 472.7 315.4 C469.5 316.3 466.4 317 465.9 317 L465 317L465 317 L465 316.5C465 316.2 465 315.6 465 315.1 C465 314.7 468.9 313.6 473.7 312.7 C478.5 311.8 484.6 310.8 487.2 310.6 C489.8 310.4 492 310.6 492 311.1 L492 312"/>
  <path d="M965 310 L965.6 309.4C966 309.1 966.9 309.5 967.6 310.2 C968.4 310.9 969 311.8 969 312.2 L969 313L969 313 L968.5 313C968.2 313 968 312.8 968 312.7 C968 312.6 967.3 311.9 966.5 311.2 L965 310"/>
  <path d="M349.1 305.8 L348.5 305.5 L348 305 L348 304.2C348.1 303.8 348.3 304 348.6 304.7 C348.9 305.4 349.6 305.7 350.1 305.3 C350.7 305 353.2 305.5 355.8 306.5 C358.3 307.5 360.7 308.5 361 308.9 C361.2 309.2 361.8 309.8 362.2 310.2 L363 311L363 311 L361.6 311C360.9 311 360 310.6 359.5 310.2 C359.1 309.8 356.6 308.7 353.9 307.7 L349 306"/>
  <path d="M521 306 L515.2 307.5C512 308.4 508.7 309.6 507.8 310 C506.8 310.5 505.8 311 505.5 311 L505 311L505 311 L505 310.5C505 310.2 505 309.7 505 309.4 C505 309.1 506.9 308 509.2 307 C511.5 306 515.1 304.9 517.2 304.6 C519.3 304.3 521 304.5 521 305 L521 306"/>
  <path d="M964 307 L963.5 307C963.2 307 963 306.7 963 306.5 L963 306L963 306 L962.3 305.5C961.9 305.2 961.5 305 961.4 305 C961.3 305 960.5 304.1 959.6 303 L958 301L958 301 L960.6 303.3C962.1 304.5 963.7 306.1 964.1 306.8 L965 308L964.5 307.5 964.3 306.8 "/>
  <path d="M340 304 L337 302.5L334 301L334 301 L334 299.9C334 299.3 335.3 299.6 337 300.6 C338.6 301.6 340 302.7 340 303.1 C340 303.5 340.4 304 341 304.4 L342 305L341 305 L340.5 305C340.2 305 340 304.7 340 304.5 L340 304"/>
  <path d="M545 300 L543.7 300C543 300 539.8 301.1 536.5 302.5 C533.2 303.8 530.3 304.9 530.2 304.9 L530 305L530 305 L530 304.4C530 304 530.2 303.3 530.5 302.8 C530.8 302.3 532.6 301.3 534.5 300.5 C536.3 299.7 539.2 298.9 540.8 298.8 C542.4 298.6 544 298.8 544.3 299.2 L545 300"/>
  <path d="M325 298 L321.5 296L318 294L318 294 L318 293.5C318 293.2 318.3 293 318.7 293 C319.2 293 320.6 293.7 322 294.6 C323.3 295.6 324.7 296.6 325 296.9 C325.2 297.2 325.8 297.8 326.2 298.2 L327 299L326 299 L325.5 299C325.2 299 325 298.7 325 298.5 L325 298"/>
  <path d="M564 294 L559.2 295.8C556.6 296.9 553.7 298 552.7 298.3 L551 299L551 299 L551 298.5C551 298.2 551 297.7 551 297.5 C551 297.2 552.7 296.1 554.9 295 C557.1 293.9 559.7 293 560.7 293 C561.8 293 562.9 293.2 563.3 293.5 L564 294"/>
  <path d="M952 295 L954.5 297L957 299L957 299 L956.5 299C956.2 299 955.7 299 955.5 299 C955.2 299 955 298.8 955 298.7 C955 298.5 954.3 297.6 953.5 296.7 L952 295"/>
  <path d="M950 292 L949.5 292C949.2 292 948.7 292 948.5 292 C948.2 292 948 291.8 948 291.7 C948 291.5 947.3 290.6 946.5 289.7 L945 288L945 288 L945 287.3C945 286.9 946.5 288.1 948.5 290 C950.4 291.8 952 293.5 952 293.6 L952 294L952 294 L951 293L950 292"/>
  <path d="M583 287 L577 290L571 293L571 293 L571 292.4C571 292 571.2 291.4 571.5 290.9 C571.8 290.4 573.5 289.4 575.2 288.6 C577 287.8 579.5 286.8 580.7 286.5 C581.9 286.1 583 286.1 583 286.4 L583 287"/>
  <path d="M307 288 L307 287.4C307 287.1 307.5 287.2 308.2 287.5 C308.9 287.9 310 288.7 310.7 289.2 C311.4 289.8 312 290.4 312 290.6 L312 291L312 291 L311.5 291C311.2 291 310.6 291 310.1 291 C309.6 291 308.7 290.3 308.1 289.5 L307 288"/>
  <path d="M602 282 L597.2 283.5C594.6 284.4 592 285.6 591.5 286 C591 286.5 590.2 287 589.8 287 L589 287L589 287 L589 286.4C589 286 589.2 285.3 589.5 284.8 C589.8 284.3 591.3 283.3 592.8 282.6 C594.2 281.8 596.9 281 598.7 280.6 C600.6 280.3 602 280.4 602 281 L602 282"/>
  <path d="M296 282 L295.5 282C295.2 282 294.7 282 294.5 282 L294 282L294 281 L294.6 280.4C295 280.2 295.7 280.5 296.1 281.2 C296.6 281.9 296.9 282 296.9 281.5 C296.9 281 297.9 281.5 299 282.5 C300.1 283.4 301 284.4 301 284.6 L301 285L301 285 L298.5 283.5L296 282"/>
  <path d="M938 282 L938 281.2C938 280.8 938.6 281.2 939.5 282 C940.3 282.8 941 283.8 941 284.2 L941 285L941 285 L939.5 283.5L938 282"/>
  <path d="M935 281 L933 279.9C931.9 279.4 930.8 278.5 930.4 277.9 C930 277.3 928.9 276.4 927.8 275.9 L926 275L926 275 L925.1 274.5C924.6 274.2 923.3 273.1 922.1 272 L920 270L920 270 L920 269.4C920 269.1 921.3 269.9 923 271.1 C924.6 272.3 926 273.7 926 274.2 C926 274.8 926.7 274.9 927.5 274.6 C928.6 274.2 930.4 275.2 932.5 277.3 C934.4 279.2 936 280.5 936 280.2 C936 279.9 936.2 279.8 936.5 280.1 C936.7 280.4 937 280.9 937 281.3 L937 282L936 282 L935.5 282C935.2 282 935 281.7 935 281.5 L935 281"/>
  <path d="M292 279 L291.5 279C291.2 279 290.6 279 290.2 279 C289.8 279 288.7 278.1 287.7 277 L286 275L286 275 L286 274.4C286 274.1 286.7 274.3 287.7 274.8 C288.7 275.3 290.3 276.6 291.2 277.7 C292.2 278.7 293 279.9 293 280.3 L293 281L292 281 L292 280.5C292 280.2 292 279.7 292 279.5 L292 279"/>
  <path d="M621 277 L619.4 277C618.6 277 616.1 277.9 614 279 C611.8 280.1 609.8 281 609.5 281 L609 281L609 281 L609 280.4C609 280 609.2 279.3 609.5 278.8 C609.8 278.3 611.7 277.3 613.6 276.4 C615.6 275.6 618 275 619.1 275 C620.1 275 621 275.4 621 276 L621 277"/>
  <path d="M629 275 L629 274.5C629 274.2 629 273.7 629 273.4 C629 273.2 630.4 272 632.2 270.9 C634 269.8 636.5 269 637.7 269 C638.9 269 640 269.2 640 269.5 L640 270L640 270 L636.2 271.5C634.1 272.4 631.7 273.8 630.7 274.7 C629.7 275.6 629 276 629 275.6 L629 275"/>
  <path d="M279 270 L279 269.5C279 269.2 279.3 269 279.8 269 C280.3 269 281.2 269.6 281.8 270.3 C282.4 271 283 271.9 283 272.3 L283 273L283 273 L282.5 273C282.2 273 281.8 272.9 281.7 272.9 C281.6 272.9 280.9 272.2 280.2 271.4 L279 270"/>
  <path d="M660 264 L655.2 265.6C652.6 266.5 650 267.6 649.5 268.1 C649 268.6 648.2 269 647.8 269 L647 269L647 269 L647 268.5C647 268.2 647 267.8 647 267.5 C647 267.3 648.4 266.3 650.2 265.2 C652 264.2 654.9 263 656.7 262.6 C658.6 262.3 660 262.4 660 263 L660 264"/>
  <path d="M910 264 L910 263.4C910 263.1 910.8 263.3 911.8 263.9 C912.8 264.4 914.1 265.5 914.8 266.2 C915.4 267 916 267.9 916 268.3 L916 269L916 269 L915.3 268.5C914.9 268.2 914.4 268 914.1 268 C913.8 268 912.7 267.1 911.7 266 L910 264"/>
  <path d="M270 262 L272 263.5L274 265L274 265 L273.5 265C273.2 265 272.8 264.9 272.7 264.9 C272.6 264.9 271.9 264.3 271.2 263.4 L270 262"/>
  <path d="M666 263 L665.9 262.2C665.9 261.8 666.7 260.9 667.7 260.2 C668.6 259.5 671.1 258.4 673.2 257.8 C675.3 257.1 677.2 256.9 677.5 257.1 C677.7 257.4 678 257.9 678 258.3 L678 259L678 259 L676.9 259C676.3 259 673.6 260.1 670.9 261.5 C668.2 262.9 666 263.8 666 263.5 L666 263"/>
  <path d="M903 262 L899.5 260L896 258L896 258 L896 257.5C896 257.2 896.3 257 896.7 257 C897.2 257 898.6 257.7 900 258.6 C901.3 259.6 902.7 260.6 903 260.9 C903.2 261.2 903.8 261.8 904.2 262.2 L905 263L904 263 L903.5 263C903.2 263 903 262.7 903 262.5 L903 262"/>
  <path d="M878 252 L878 251.5C878 251.2 878.4 251 878.9 251 C879.4 251 882.3 251.9 885.2 253 C888.1 254.2 890.7 255.4 891 255.8 C891.2 256.1 891.8 256.8 892.2 257.2 L893 258L893 258 L885.5 255L878 252"/>
  <path d="M702 253 L698.8 253.5C697 253.7 694.3 254.6 692.6 255.5 C691 256.3 689.3 257 688.8 257 L688 257L688 257 L687.9 256.2C687.9 255.8 688.7 254.9 689.6 254.2 C690.6 253.5 693 252.5 694.9 251.9 C696.9 251.4 699.2 251 700.2 251 C701.2 251 702 251.4 702 252 L702 253"/>
  <path d="M261 252 L260.5 252C260.2 252 260 251.7 260 251.5 L260 251L260 251 L259.5 251C259.2 251 259 250.7 259 250.5 L259 250L259 250 L258 249L257 248L257 248 L259 249.6C260.1 250.5 261 251.3 261 251.4 C261 251.5 261.2 251.9 261.5 252.3 L262 253L261.5 252.5 261.3 251.8 "/>
  <path d="M731 247 L728.6 247C727.3 247 724.3 247.6 721.9 248.3 C719.4 249.1 716.7 250 715.7 250.3 L714 251L714 251 L714 250.5C714 250.2 714 249.6 714 249.1 C714 248.6 716.3 247.5 719.1 246.6 C721.9 245.7 725.7 245 727.6 245 C729.4 245 731 245.4 731 246 L731 247"/>
  <path d="M856 246 L856 245.5C856 245.2 856.1 245 856.3 245 C856.5 245 858.6 245.6 861 246.5 C863.3 247.3 865.9 248.5 866.6 249.1 C867.3 249.7 868 250.4 868 250.6 L868 251L868 251 L862 248.5L856 246"/>
  <path d="M844 245 L841.2 244.5C839.7 244.2 834.4 243.8 829.5 243.4 C824.5 243.1 816.6 242.4 812 241.9 C807.3 241.4 802 241 800.2 241 L797 241L797 241 L797 239.8C797 239 800 238.8 808.1 239.3 C814.2 239.6 824.2 240.4 830.3 241.1 C836.4 241.7 841.9 242.6 842.5 243 C843 243.4 843.8 244 844.2 244.4 L845 245L845 246 L844.5 246C844.2 246 844 245.7 844 245.5 L844 245"/>
  <path d="M777 241 L768.6 241.5C763.9 241.9 758.7 242.5 756.8 243 C755 243.4 752.4 244.1 751.2 244.4 L749 245L749 245 L749 244.5C749 244.2 749 243.6 749 243.1 C749 242.6 751 241.7 753.5 241 C756 240.4 762.3 239.6 767.5 239.3 C774.3 238.8 777 239 777 239.8 L777 241"/>
  <path d="M246 234 L248 236L250 238L250 238 L248 236L246 234"/>
  <path d="M241 224 L242.5 225.1C243.3 225.7 244 226.4 244 226.6 C244 226.8 244 227.2 244 227.5 L244 228L244 228 L243.7 227.9C243.6 227.9 242.7 227.4 241.7 226.9 C240.7 226.3 240 225.4 240 224.9 C240 224.4 240.2 224 240.5 224 L241 224"/>
  <path d="M234 211 L235.7 212.5C236.6 213.3 237.5 214 237.7 214 C237.8 214 238 214.2 238 214.5 C238 214.7 238 215.2 238 215.5 L238 216L238 216 L237.3 215.5C236.9 215.2 236.3 215 235.9 215 C235.4 215 234.8 214.1 234.5 213 L234 211"/>
  <path d="M232 202 L231.4 202C231.1 202 230 200 229 197.7 C227.9 195.4 227.3 193.4 227.5 193.2 L228 193L228 193 L229.9 196.2C231 198 232.2 200.2 232.7 201.2 C233.1 202.2 233.3 203.2 233.2 203.5 L233 204L232 204 L232 203.5C232 203.2 232 202.7 232 202.5 L232 202"/>
  <path d="M223 163 L224.5 169L226 175L226 175 L225.3 175C224.9 175 224.2 174.4 223.8 173.7 C223.4 173 222.8 170.8 222.4 168.8 C222.1 166.7 222 164.6 222.4 164 L223 163"/>
  <path d="M226 69 L226 71C226 72.1 225.5 76.1 225 79.8 C224.5 83.4 223.8 87.5 223.5 88.7 L223 91L223 91 L222.3 91C221.9 91 221.4 90.7 221.1 90.5 C220.8 90.2 221.2 90 221.8 90 C222.7 90 222.8 88.9 222.4 86.5 C222 84.6 222.3 79.9 222.9 76 C223.6 72.1 224.5 69 225 69 L226 69"/>
  <path d="M229 26 L229 25C229 24.5 228.7 23.4 228.3 22.5 C228 21.6 228 16.2 228.4 10.4 C229 2.4 229.5 0 230.5 0 L232 0L232 0 L231.5 3.2C231.2 5 230.7 10.8 230.4 16.2 C230 21.6 229.6 26 229.4 26 L229 26"/>
 </g>
 <g fill="#4f0a0a" fill-rule="evenodd">
  <path d="M1825.6 1342 L1825.2 1341.7 L1824.5 1341.5 1824.5 1341.5 L1824 1342 L1823.3 1341.5C1822.9 1341.2 1822.5 1341 1822.3 1341 L1822 1341L1822 1341 L1822 1341.5C1822 1341.7 1821.7 1342 1821.5 1342 L1821 1342L1821 1341.3 1822 1341 L1822 1340 L1821.5 1340C1821.2 1340 1820.7 1340 1820.5 1340 L1820 1340L1820 1340 L1820 1339.5C1820 1339.2 1820 1338.8 1820 1338.6 C1820 1338.4 1818.8 1337.4 1817.5 1336.5 C1816.1 1335.6 1815 1335.1 1815 1335.4 L1815 1336L1815 1336 L1813.5 1336L1812 1336L1811.5 1335.5 L1810.7 1335.2 1810.2 1334.7 L1810 1334 L1810 1333.5C1810 1333.2 1809.7 1333 1809.5 1333 L1809 1333L1809 1334 L1808.5 1334C1808.2 1334 1808 1333.7 1808 1333.5 L1808 1333L1808 1333 L1808 1332.6C1808 1332.4 1807.1 1331.4 1806 1330.5 C1804.8 1329.4 1804 1329.1 1804 1329.8 L1804 1331L1804 1331 L1803.3 1330.5C1802.9 1330.2 1802.5 1330 1802.3 1330 L1802 1330L1801.5 1329.5 L1800.7 1329.2 1800.2 1328.7 L1800 1328 L1800 1327.5C1800 1327.2 1799.7 1327 1799.5 1327 L1799 1327L1799 1328 L1798.5 1328C1798.2 1328 1798 1327.7 1798 1327.5 L1798 1327L1798 1327 L1798 1326.6C1798 1326.4 1797.1 1325.5 1796.1 1324.6 C1795.1 1323.7 1794 1323.2 1793.6 1323.4 L1793 1324L1793 1324 L1792.6 1323.5C1792.4 1323.2 1792 1323 1791.6 1323 L1791 1323L1791 1323 L1790 1322L1789 1321L1789 1321 L1789 1320.6C1789 1320.4 1788.1 1319.4 1787 1318.5 C1785.9 1317.5 1785 1316.9 1785 1317.3 L1785 1318L1784.6 1318 1784.2 1317.7 L1784 1317 L1784 1316.5C1784 1316.2 1783.7 1316 1783.5 1316 C1783.2 1316 1783 1316.2 1783 1316.5 L1783 1317L1783 1318 L1782.5 1318C1782.2 1318 1782 1317.7 1782 1317.5 L1782 1317L1782 1316 L1782 1315.5C1782 1315.2 1781.7 1315 1781.5 1315 L1781 1315L1781 1316 L1779.5 1314.5L1778 1313L1777.5 1312.5 1777.5 1312.5 L1777 1313 L1776.3 1312.5C1775.9 1312.2 1775.5 1312 1775.3 1312 L1775 1312L1775 1312 L1775 1311.5C1775 1311.2 1774.7 1311 1774.5 1311 L1774 1311L1774 1311 L1774 1310.3C1774 1309.9 1773.2 1308.7 1772.2 1307.7 C1771.3 1306.6 1769.7 1305.4 1768.8 1304.9 C1767.9 1304.4 1766.9 1304.2 1766.6 1304.5 L1766 1305L1766 1305 L1766 1304.2C1766 1303.8 1763.1 1300.9 1759.7 1297.7 C1756.3 1294.6 1753.1 1292 1752.7 1292 L1752 1292L1752 1292 L1751.6 1291.5C1751.4 1291.2 1751 1291 1750.6 1291 L1750 1291L1750 1291 L1749.5 1290.3C1749.2 1289.9 1749 1289.5 1749 1289.3 L1749 1289L1749 1289 L1747.5 1287.5L1746 1286L1746 1286 L1746 1285.5C1746 1285.2 1745.8 1285 1745.6 1285 C1745.4 1285 1745 1284.7 1744.6 1284.5 L1744 1284L1743.3 1284 1742.6 1283 L1743 1282 L1742.5 1281.3C1742.2 1280.9 1742 1280.5 1742 1280.4 C1742 1280.3 1741.1 1279.5 1740 1278.6 L1738 1277L1738 1277 L1737.5 1277C1737.2 1277 1737 1276.7 1737 1276.5 L1737 1276L1736.5 1275.5 1736.2 1274.7 L1736.2 1274.7 1735.6 1274 L1736 1273 L1734 1271L1732 1269L1732 1269 L1731.5 1269C1731.2 1269 1731 1268.7 1731 1268.5 L1731 1268L1731 1268 L1730.5 1267L1730 1266L1730 1266 L1727.5 1263.5L1725 1261L1725 1261 L1725 1260.5C1725 1260.2 1725 1259.7 1725 1259.5 L1725 1259L1725 1259 L1725 1258.5C1725 1258.2 1724.7 1258 1724.5 1258 L1724 1258L1724 1258 L1724 1257.5C1724 1257.2 1724 1256.7 1724 1256.5 C1724 1256.2 1723.8 1256 1723.7 1256 C1723.5 1256 1722.6 1255.3 1721.7 1254.5 L1720 1253L1720 1253 L1718.5 1249.5L1717 1246L1717 1246 L1715.5 1244.5L1714 1243L1714 1243 L1713.9 1242.7C1713.9 1242.6 1713.7 1241.4 1713.4 1240.2 L1713 1238L1713 1238 L1712.5 1237L1712 1236L1712 1236 L1712 1235.5C1712 1235.2 1711.9 1234.8 1711.9 1234.7 C1711.9 1234.6 1711 1233.4 1709.9 1232.2 L1708 1230L1708 1230 L1708 1229.5C1708 1229.2 1708 1228.7 1708 1228.5 L1708 1228L1708 1228 L1707.5 1227.3C1707.2 1226.9 1707 1226.5 1707 1226.3 L1707 1226L1706.5 1225.5 L1706 1225 L1706 1224.5C1706 1224.2 1706 1223.7 1706 1223.5 L1706 1223L1706 1223 L1704 1219.5L1702 1216L1702 1216 L1702 1215.2C1702 1214.8 1701.7 1213.2 1701.5 1211.7 L1701 1209L1700.5 1208.5 1700.2 1207.7 L1700.2 1207.7 1699.6 1207 L1700 1206 L1698 1202.5L1696 1199L1696 1199 L1695.5 1195.7C1695.2 1193.9 1694.8 1189.9 1694.5 1186.7 L1694 1181L1694 1181 L1693.3 1178.2C1693 1176.7 1692.3 1172.2 1691.8 1168.2 L1691 1161L1691 1161 L1691 1160.5C1691 1160.2 1691 1159.7 1691 1159.5 L1691 1159L1691 1159 L1691 1147L1691 1135L1691 1135 L1691 1133.5L1691 1132L1691 1132 L1691.5 1128.2C1691.7 1126.1 1692.4 1120.6 1693 1116 C1693.5 1111.3 1694 1106.9 1694 1106.2 L1694 1105L1694 1105 L1694.1 1102.2C1694.2 1100.7 1694.4 1098 1694.6 1096.2 L1695 1093L1695.5 1092.5 1695.5 1092.5 L1695 1092 L1695 1090.5C1695 1089.8 1695.2 1088.5 1695.5 1087.7 C1695.8 1087 1695.8 1086 1695.5 1085.6 L1695 1085L1695.5 1084.5 1695.5 1084.5 L1695 1084 L1695 1083.6C1695 1083.4 1695.2 1083.1 1695.5 1082.8 C1695.7 1082.5 1695.7 1082 1695.5 1081.6 L1695 1081L1695.5 1080.5 1695.5 1080.5 L1695 1080 L1695.5 1076.7C1695.8 1074.9 1696 1073.1 1696 1072.7 L1696 1072L1696 1072 L1696.4 1070.7C1696.7 1070 1697.6 1063.1 1698.4 1055.4 C1699.3 1047.6 1700 1040.3 1700 1039.1 L1700 1037L1700 1037 L1700 1032.5C1700 1030 1700 1027.7 1700 1027.5 C1700 1027.2 1700 1024.7 1700 1022 L1700 1017L1700 1017 L1699.9 1016.7C1699.9 1016.6 1699.6 1013.8 1699.3 1010.5 C1698.9 1007.2 1698.1 1002.8 1697.3 1000.7 L1696 997L1696 997 L1696 996.5C1696 996.2 1696 995.7 1696 995.5 L1696 995L1696 994 1695.5 993.5 L1695 993 L1695 988.5L1695 984L1695 983 1694.5 982.5 L1694 982 L1693.5 981.3C1693.2 980.9 1693 980.5 1693 980.3 L1693 980L1693 980 L1693 979.2C1693 978.8 1692.5 977 1691.9 975.2 C1691.3 973.4 1690.4 971.7 1689.9 971.5 L1689 971L1689 971 L1689 969.5L1689 968L1689 968 L1689.2 968C1689.4 968 1689.5 966.7 1689.5 965.2 C1689.5 962.6 1689.8 962.4 1696 961.3 C1699.5 960.6 1708.8 959.1 1716.5 958 C1724.2 956.9 1732.5 955.3 1735 954.4 C1737.4 953.6 1743.6 952.2 1748.6 951.4 C1753.7 950.6 1760.7 949 1764.2 948 C1767.6 946.9 1772.7 945.8 1775.5 945.4 C1778.2 945 1783.2 943.7 1786.5 942.4 C1789.8 941.2 1794 939.8 1796 939.5 C1797.9 939.1 1803.3 937.5 1808.1 935.9 C1812.9 934.3 1817.7 933 1818.9 933 C1820.1 933 1822.3 932.3 1823.7 931.6 C1825.2 930.8 1827.9 929.9 1829.7 929.6 L1833 929L1833 929 L1833 1056C1833 1125.8 1833 1183.2 1833 1183.5 C1833 1183.7 1833 1219.7 1833 1263.5 L1833 1343L1833 1343 L1831.2 1342.6C1830.2 1342.4 1828.7 1341.9 1827.7 1341.5 C1826.7 1341.1 1826 1341 1826 1341.3 L1826 1342"/>
  <path d="M840 1079 L838 1079L836 1079L836 1079 L836 1077.8C836 1077.1 835.7 1076.8 835.5 1077.1 C835.2 1077.4 835 1077.9 835 1078.3 L835 1079L835 1079 L833.9 1079C833.3 1079 832.5 1078.8 832.1 1078.6 C831.7 1078.4 830.9 1078.4 830.2 1078.6 L829 1079L828.5 1078.5 L828 1078 L826.4 1078C825.5 1078 824.4 1077.7 824 1077.5 C823.6 1077.2 822.9 1077.2 822.6 1077.5 L822 1078L822 1078 L821.2 1077.2C820.8 1076.8 820.3 1076.1 820.1 1075.7 C819.9 1075.3 819.1 1075 818.3 1075 C817.5 1075 815.1 1074 812.9 1072.9 C810.7 1071.8 809 1071.4 809 1071.9 L809 1073L809 1073 L808.3 1072.5C807.9 1072.2 807.2 1072 806.8 1072 C806.3 1072 805.7 1072 805.5 1072 L805 1072L804 1072.3 803.1 1072 L803 1071 L802.5 1071C802.2 1071 801.7 1071 801.5 1071 L801 1071L801 1071 L801 1070.2C801 1069.8 800.2 1068.9 799.2 1068.1 C798.2 1067.4 796.7 1066.4 795.7 1065.8 C794.7 1065.3 794 1065.1 794 1065.4 C794 1065.7 794 1066.2 794 1066.5 L794 1067L794 1067 L793.1 1067C792.7 1067 792.1 1066.7 791.8 1066.5 C791.5 1066.2 791 1066 790.6 1066 L790 1066L789.5 1065.5 L789 1065 L788.5 1065C788.2 1065 788 1064.7 788 1064.5 L788 1064L788 1064 L788 1063.6C788 1063.4 787.1 1062.5 786.1 1061.6 C785.1 1060.7 784 1060 783.6 1060 C783.3 1060 783 1060.2 783 1060.5 L783 1061L783 1061 L782.5 1061C782.2 1061 781.5 1061 781 1061 C780.4 1061 780 1060.7 780 1060.5 C780 1060.2 779.7 1060 779.5 1060 L779 1060L778.5 1059.5 L778 1059 L777.5 1059C777.2 1059 777 1058.7 777 1058.5 L777 1058L777 1058 L777 1057.5C777 1057.3 775.8 1056.2 774.3 1055 C772.8 1053.9 771.5 1053.1 771.3 1053.3 C771.1 1053.5 771 1053.9 771 1054.3 L771 1055L771 1055 L770.3 1054.5C769.9 1054.2 769.5 1054 769.3 1054 L769 1054L769 1054 L769 1053.5C769 1053.2 768.7 1053 768.5 1053 L768 1053L768 1053 L768 1052.2C768 1051.8 766.8 1050.4 765.5 1049 C764.1 1047.6 763 1047 763 1047.7 L763 1049L763 1049 L761.5 1047.5L760 1046L760 1046 L751 1037.5L742 1029L742 1029 L741.5 1027.7C741.3 1027 741.1 1026.3 741 1026.2 L741 1026L741 1026 L739 1024.5L737 1023L737 1023 L735.5 1020L734 1017L734 1016 L733.5 1016C733.2 1016 733 1015.7 733 1015.5 L733 1015L732 1015 L731 1012.5L730 1010L730 1010 L730 1009.5C730 1009.2 729.9 1008.8 729.9 1008.7 C729.9 1008.6 729 1007.4 727.9 1006.2 L726 1004L726 1004 L726 1002.5C726 1001.7 725.5 1000.8 724.9 1000.4 C724.4 1000.1 724.1 999.4 724.4 998.9 L725 998L724.5 997.5 724.2 996.7 L724.2 996.7 723.6 996 L724 995 L722 992L720 989L720 989 L719.5 988.3C719.2 987.9 719 987 719 986.3 C719 985.6 719 984.7 719 984.5 L719 984L718.5 983.5 L718 983 L718 982.7C718.1 982.6 718.3 982 718.4 981.5 C718.6 980.9 718.6 979.9 718.4 979.2 L718 978L718 978 L716 972.5L714 967L714 967 L713.5 965.4C713.2 964.5 713 962.2 713 960.4 C713 958.5 713 956.7 713 956.5 L713 956L713.5 955.5 713.5 955.5 L713 955 L713 953.5L713 952L713.5 951.5 713.5 951.5 L713 951 L712.9 948.7C712.8 947.5 712.7 942.9 712.6 938.5 C712.5 934.1 712.6 927.4 712.7 923.7 L713 917L713.5 916.5 713.5 916.5 L713.2 915.7 713.2 915.2 L713.5 914.5 713.5 914.5 L713 914 L713 913.4C713 913 713.2 912.4 713.4 912 C713.7 911.6 713.7 910.9 713.4 910.6 L713 910L713.5 909.5 L714 909 L714 908.5C714 908.2 714 907.7 714 907.5 L714 907L714 907 L714.3 907C714.5 907 715.1 904.8 715.8 902.2 C716.4 899.6 717.1 896.4 717.4 895.2 L718 893L718 893 L718.2 892.2C718.3 891.8 718.6 889.8 718.7 887.7 L719 884L719.5 883.5 L720 883 L720 882.6C720 882.4 719.7 882.1 719.5 881.8 C719.2 881.5 719.2 881 719.5 880.6 L720 880L720 880 L720.4 880C720.7 880 721.6 878.6 722.4 877 C723.3 875.4 724 873.6 724 873 L724 872L724 872 L724 871C724 870.4 724 869.7 724 869.5 C724 869.2 724.5 867.6 725 866 L726 863L726 863 L726.4 862.3C726.7 861.9 727.6 860.6 728.5 859.3 C729.3 858 729.8 857 729.5 857 L729 857L729 857 L730.5 852.5L732 848L732 848 L734 845.5L736 843L736 843 L736.5 840L737 837L737 837 L739.5 834L742 831L742 831 L742.5 830.3C742.7 829.9 743 829.5 743 829.3 L743 829L743.5 828.5 L744 828 L743.5 827.3C743.2 826.9 743 826.5 743 826.3 L743 826L743 826 L745.5 823L748 820L748 820 L749 817.5L750 815L750 815 L752 813L754 811L753.6 811 754.2 810.2 L754.5 809.5 755 809 L755 809 755.5 808.5 L756 808 L756 807.5C756 807.2 756 806.7 756 806.5 L756 806L756 806 L758 804L760 802L760 802 L760.5 802C760.7 802 761 801.7 761 801.5 C761 801.2 760.7 801 760.5 801 L760 801L760 801 L760.5 800.3C760.7 799.9 761 799.5 761 799.3 L761 799L761 799 L761.5 799C761.7 799 762 798.7 762 798.5 L762 798L762 798 L764 796L766 794L766 794 L767 792L768 790L768 790 L768.6 789.5C769 789.2 769.4 789 769.5 789 C769.6 789 770.4 788.1 771.3 787 L773 785L773 785 L773.4 783.7C773.6 783 773.8 782.3 773.9 782.2 L774 782L774 782 L776 780L778 778L778 778 L778.5 777.3C778.7 776.9 779 776.5 779 776.3 L779 776L779 776 L780.5 774.5L782 773L782 773 L782.5 773C782.7 773 783 772.8 783 772.6 C783 772.4 783.2 772 783.5 771.6 L784 771L784 771 L784.5 770.3C784.7 769.9 785 769.5 785 769.3 L785 769L785 769 L786.5 767.5L788 766L788 766 L788.5 766C788.7 766 789 765.8 789 765.6 C789 765.4 789.2 765 789.5 764.6 L790 764L790 764 L790 763.5C790 763.2 790.2 763 790.5 763 L791 763L791.5 762.5 791.7 761.7 L791.7 761.7 792.3 761 L793 761 L793 760.5C793 760.2 793.1 760 793.3 760 C793.5 760 794.2 759.3 794.8 758.5 L796 757L796 757 L796.5 757C796.7 757 797 756.7 797 756.5 L797 756L797 756 L797.2 755.9C797.3 755.8 814.6 738.5 835.5 717.4 C856.4 696.3 877.8 674.5 883.2 669 L893 659L892.6 658 893.3 657 L894 657 L894.5 656.3C894.7 655.9 895 655.6 895 655.5 C895 655.4 895.6 654.6 896.5 653.7 L898 652L898 652 L898.5 651.3C898.7 650.9 899 650.5 899 650.3 L899 650L899 650 L899.6 649.5C900 649.2 900.4 649 900.5 649 C900.6 649 901.4 648.1 902.3 647 L904 645L904 645 L904.5 645C904.7 645 905 644.7 905 644.5 L905 644L905 644 L905.5 644C905.7 644 906 643.7 906 643.5 L906 643L906 643 L906.5 643C906.7 643 907 642.7 907 642.5 L907 642L907 642 L907.5 642C907.7 642 908 641.7 908 641.5 L908 641L908 641 L908.5 641C908.7 641 909 640.8 909 640.6 C909 640.4 909.2 640 909.5 639.6 L910 639L910 639 L910 638.5C910 638.2 910.1 638 910.3 638 C910.5 638 911.2 637.3 911.8 636.5 L913 635L914 635 L914 634.5C914 634.2 914.2 634 914.5 634 L915 634L915 633 L916 631.5L917 630L917 630 L917.6 629.5C918 629.2 918.5 629 918.8 629 C919.1 629 920 628.3 920.7 627.5 L922 626L922 626 L922.5 624.5L923 623L923 623 L923.6 622.5C924 622.2 924.5 622 924.8 622 C925.1 622 926 621.3 926.7 620.5 L928 619L928 619 L928.4 617.7C928.6 617 928.8 616.3 928.9 616.2 L929 616L929 616 L929.6 615.5C930 615.2 930.4 615 930.5 615 C930.6 615 931.4 614.1 932.3 613 L934 611L934 611 L934.5 610C934.7 609.5 935 608.9 935 608.5 L935 608L935 608 L935.6 607.5C936 607.2 936.4 607 936.5 607 C936.6 607 937.4 606.1 938.3 605 L940 603L940 603 L940.5 602C940.7 601.5 941 600.9 941 600.5 L941 600L941 600 L941.6 599.5C942 599.2 942.4 599 942.5 599 C942.6 599 943.4 598.1 944.3 597 L946 595L945.6 595 946.2 594.2 L946.5 593.5 L947 593 L947.4 591.7C947.6 591 947.8 590.3 947.9 590.2 L948 590L948 590 L950 588L952 586L952 586 L952 585.5C952 585.2 952.2 585 952.5 585 C952.7 585 953 584.3 953 583.5 L953 582L953 582 L955.5 579L958 576L957.6 576 958.2 575.2 L958.5 574.5 958.7 573.7 L958.7 573.7 959.3 573 L960 573 L961.5 570.5L963 568L963 568 L963.5 567C963.7 566.5 964 565.9 964 565.5 L964 565L964 565 L964.5 565C964.7 565 965 564.7 965 564.5 L965 564L965 564 L967 561L969 558L969 558 L969.5 558C969.7 558 970 557.7 970 557.5 L970 557L970 557 L971 553.5L972 550L972 550 L974 548L976 546L976 546 L977 542.5L978 539L978 539 L978.3 539C978.5 539 979.5 537.8 980.4 536.5 C981.3 535.1 981.8 534 981.5 534 L981 534L981 534 L981 533.6C981 533.4 981.2 533 981.6 532.6 C982 532.3 982.4 530.6 982.6 529 L983 526L983 526 L983.3 525.7C983.4 525.6 984.6 524.1 985.8 522.5 C987 521 987.7 519.5 987.5 519.3 L987 519L987 518.6 987.2 518.2 L987.5 517.5 L988 517 L988 516.5C988 516.2 988 515.7 988 515.5 L988 515L988.5 514.5 L988.7 513.7 989 513 L988.6 512 989 511 L990 511 L992 507L994 503L994 503 L994 502.5C994 502.2 994 501.7 994 501.5 C994 501.2 994 500.8 994 500.7 C994.1 500.6 994.3 498.8 994.5 496.7 L995 493L995.5 492.5 996 492 L996 492 L996.5 492C996.7 492 997 491.7 997 491.5 C997 491.2 996.7 491 996.5 491 L996 491L996.2 490.7 996 490.3 L997 490 L997 489.7C997 489.6 997.4 488.8 997.9 488 C998.3 487.1 999 485.4 999.4 484.2 C999.8 483 999.8 482 999.5 482 L999 482L999 481.6 999.2 481.2 L999.5 480.5 L999.7 479.7 1000 479.5 L1000.5 478.5 1000.5 478.5 L1000 477.5 1000 477.5 L1000.5 476.5 1000.5 476.5 L1000 476 L1000.2 475.2C1000.3 474.8 1000.6 472.3 1000.7 469.7 L1001 465L1001 465 L1001.3 464.7C1001.5 464.6 1002.1 462.4 1002.7 460 C1003.3 457.5 1004.1 452.2 1004.4 448.2 L1005 441L1005 441 L1005.1 439.2C1005.1 438.2 1005.2 434.8 1005.3 431.5 C1005.4 428.2 1005.3 422.6 1005.2 419.2 L1005 413L1005 413 L1005 411C1005 409.9 1004.9 407.7 1004.9 406.2 C1004.8 404.7 1003.9 400.6 1002.9 397.2 L1001 391L1001 391 L1001 388.6C1001 387.3 1000.7 384.8 1000.5 383.1 L1000 380L1000.5 379.5 1000.5 379.5 L1000 378.5 1000.2 378.2 L1000.5 377.5 1000.5 377.5 L1000 377 L999.5 376C999.2 375.5 999 374.9 999 374.5 L999 374L999 374 L997 369.5L995 365L995 365 L995 363.9C995 363.3 994.7 362.4 994.5 362 C994.2 361.5 994 360.9 994 360.5 L994 360L995 360 L995 359.5C995 359.2 995 358.7 995 358.5 L995 358L994 358 L993.5 358C993.2 358 993 357.7 993 357.5 L993 357L993 357 L993.5 357C993.7 357 994 356.7 994 356.5 C994 356.2 993.7 356 993.5 356 L993 356L993 356 L991 352L989 348L989 348 L988.5 347.3C988.2 346.9 988 346.5 988 346.3 L988 346L988.5 345.5 988.5 345.5 L988 345 L987.5 344C987.2 343.5 987 342.9 987 342.5 L987 342L987 342 L987 341.5C987 341.2 986.9 340.8 986.9 340.7 C986.9 340.6 986 339.4 984.9 338.2 L983 336L983 336 L982.5 334.7C982.3 334 982.1 333.3 982 333.2 L982 333L981.5 332.5 981.2 331.7 L981.2 331.7 980.6 331 L981 330 L979 328.5L977 327L977 327 L976 324.5L975 322L975 322 L975 321.5C975 321.2 975 320.7 975 320.5 C975 320.2 974.8 320 974.7 320 C974.5 320 973.6 319.3 972.7 318.5 L971 317L971 317 L970.5 316.3C970.2 315.9 970 315.5 970 315.3 L970 315L969.5 314.5 969.2 313.7 L969.2 313.7 968.6 313 L969 312 L969 311.6C969 311.4 968.3 310.7 967.6 310.1 C966.9 309.5 966 309.2 965.6 309.5 L965 310L965 310 L965 309.5C965 309.2 965 308.7 965 308.5 L965 308L965 308 L965 307.5C965 307.2 964.7 307 964.5 307 L964 307L964 307 L964 306.5C964 306.2 963.7 306 963.5 306 L963 306L963 306 L960.5 303.5L958 301L958 301 L957.5 300.3C957.2 299.9 957 299.5 957 299.3 L957 299L957 299 L955 297L953 295L952.3 295 951.6 294 L952 293 L951.3 292.5C950.9 292.2 950.5 292 950.3 292 L950 292L950 292 L950 291.6C950 291.4 948.8 290.2 947.5 289 C946.1 287.7 945 286.9 945 287.3 L945 288L945 288 L944.3 287.5C943.9 287.2 943.5 287 943.3 287 L943 287L943 286 L943 285.5C943 285.2 942.7 285 942.5 285 L942 285L942 286 L941.5 286C941.2 286 941 285.7 941 285.5 L941 285L941 285 L941 284.5C941 284.2 941 283.8 941 283.6 C941 283.4 940.3 282.7 939.5 282.1 L938 281L937.6 282 937 281.6 L937 281 L936.5 280.3C936.2 279.9 936 279.9 936 280.3 C936 280.7 935.7 281 935.5 281 L935 281L935 281 L935 280.3C935 279.9 934.2 278.7 933.2 277.7 C932.3 276.6 930.8 275.4 930 275 C929.1 274.6 927.9 274.4 927.2 274.6 L926 275L926 275 L926 274.5C926 274.2 926 273.8 926 273.6 C926 273.5 924.6 272.3 923 271.1 C921.3 269.9 920 269.1 920 269.4 L920 270L920 270 L919.5 270C919.2 270 918.7 270 918.5 270 L918 270L917.5 269.5 916.7 269.2 L916.7 269.2 916 268.6 L916 268 L916 267.6C916 267.4 915.2 266.6 914.2 265.8 C913.2 264.9 911.9 263.9 911.2 263.5 C910.5 263.2 910 263.1 910 263.4 L910 264L910 264 L908.9 264C908.3 264 907.4 263.7 907 263.5 C906.5 263.2 905.9 263 905.5 263 L905 263L905 263 L904.6 262.5C904.4 262.2 904 262 903.6 262 L903 262L903 262 L903 261.3C903 260.9 902.8 260.5 902.7 260.5 C902.6 260.4 901.3 259.5 900 258.6 C898.6 257.7 897.2 257 896.7 257 C896.3 257 896 257.2 896 257.5 L896 258L896 258 L894.5 258L893 258L893 258 L892.2 257.2C891.8 256.8 891.2 256.1 891 255.8 C890.7 255.4 888.1 254.2 885.2 253 C882.3 251.9 879.4 251 878.9 251 C878.4 251 878 251.2 878 251.5 L878 252L878 252 L876.2 252C875.3 252 873 251.7 871.2 251.5 L868 251L868 251 L868 250.6C868 250.4 867.3 249.7 866.6 249.1 C865.9 248.5 863.3 247.3 861 246.5 C858.6 245.6 856.5 245 856.3 245 C856.1 245 856 245.2 856 245.5 L856 246L856 246 L852.5 246L849 246L848.5 245.5 L848 245 L847.5 245C847.2 245 846.7 245 846.5 245 L846 245L845 245.3 844.1 245 L844 244 L843.2 243.3C842.8 243 842 242.6 841.5 242.4 C840.9 242.3 835.7 241.6 830 241 C824.2 240.4 814.4 239.6 808.2 239.3 C800 238.8 797 239 797 239.8 L797 241L797 241 L792.5 241C790 241 787.7 241 787.5 241 C787.2 241 784.7 241 782 241 L777 241L777 241 L777 239.8C777 239 774.3 238.8 767.5 239.3 C762.3 239.6 756 240.4 753.5 241 C751 241.7 749 242.6 749 243.1 C749 243.6 749 244.2 749 244.5 L749 245L749 245 L746.2 245.1C744.7 245.2 741.4 245.4 738.9 245.5 C736.3 245.5 733.5 245.9 732.6 246.3 L731 247L731 247 L731 246C731 245.4 729.4 245 727.6 245 C725.7 245 721.9 245.7 719.1 246.6 C716.3 247.5 714 248.6 714 249.1 C714 249.6 714 250.2 714 250.5 L714 251L714 251 L711.7 251.1C710.5 251.2 708.3 251.3 706.8 251.5 C705.4 251.6 703.7 251.9 703.1 252.3 L702 253L702 253 L702 252C702 251.4 701.2 251 700.2 251 C699.2 251 696.9 251.4 694.9 251.9 C693 252.5 690.6 253.5 689.6 254.2 C688.7 254.9 687.9 255.8 687.9 256.2 L688 257L688 257 L684.2 257.5C682.1 257.8 679.9 258.3 679.2 258.5 L678 259L678 259 L678 258.3C678 257.9 677.7 257.4 677.5 257.1 C677.2 256.9 675.3 257.1 673.2 257.8 C671.1 258.4 668.6 259.5 667.7 260.2 C666.7 260.9 665.9 261.8 665.9 262.2 L666 263L666 263 L665.4 263C665.1 263 663.7 263.2 662.4 263.5 L660 264L660 264 L660 263C660 262.4 658.6 262.3 656.7 262.6 C654.9 263 652 264.2 650.2 265.2 C648.4 266.3 647 267.3 647 267.5 C647 267.8 647 268.2 647 268.5 L647 269L647 269 L645 269L643 269L642.5 269.5 L642 270 L641.5 270C641.2 270 640.7 270 640.5 270 L640 270L640 270 L640 269.5C640 269.2 638.9 269 637.7 269 C636.5 269 634 269.8 632.2 270.9 C630.4 272 629 273.2 629 273.4 C629 273.7 629 274.2 629 274.5 L629 275L629 275 L625.7 275.6C623.9 275.9 622.1 276.4 621.7 276.6 L621 277L621 277 L621 276C621 275.4 620.1 275 619.1 275 C618 275 615.6 275.6 613.6 276.4 C611.7 277.3 609.8 278.3 609.5 278.8 C609.2 279.3 609 280 609 280.4 L609 281L609 281 L608.2 281.1C607.8 281.1 607 281.3 606.5 281.4 C605.9 281.5 604.7 281.7 603.7 281.8 L602 282L602 282 L602 281C602 280.4 600.6 280.3 598.7 280.6 C596.9 281 594.2 281.8 592.8 282.6 C591.3 283.3 589.8 284.3 589.5 284.8 C589.2 285.3 589 286 589 286.4 L589 287L589 287 L588.7 287C588.6 287 587.5 287.2 586.4 287.5 C585.3 287.8 584.1 287.8 583.7 287.5 L583 287L583 287 L583 286.4C583 286.1 581.9 286.1 580.7 286.5 C579.5 286.8 577 287.8 575.2 288.6 C573.5 289.4 571.8 290.4 571.5 290.9 C571.2 291.4 571 292 571 292.4 L571 293L571 293 L570 293.1C569.4 293.1 568.5 293.3 568 293.5 C567.4 293.6 566.3 293.8 565.5 293.8 L564 294L564 294 L563.3 293.5C562.9 293.2 561.8 293 560.7 293 C559.7 293 557.1 293.9 554.9 295 C552.7 296.1 551 297.2 551 297.5 C551 297.7 551 298.2 551 298.5 L551 299L551 299 L550.5 299C550.2 299 549.7 299 549.5 299 L549 299L548.5 299.5 L548 300 L546.5 300L545 300L545 300 L544.3 299.2C544 298.8 542.4 298.6 540.8 298.8 C539.2 298.9 536.3 299.7 534.5 300.5 C532.6 301.3 530.8 302.3 530.5 302.8 C530.2 303.3 530 304 530 304.4 L530 305L530 305 L529.5 305C529.2 305 528.6 305 528.1 305 C527.7 305 527 305.2 526.6 305.5 L526 306L525.5 305.5 525.5 305.5 L525 306 L523 306L521 306L521 306 L521 305C521 304.5 519.3 304.3 517.2 304.6 C515.1 304.9 511.5 306 509.2 307 C506.9 308 505 309.1 505 309.4 C505 309.7 505 310.2 505 310.5 L505 311L505 311 L501.2 311.1C499.1 311.2 496.6 311.4 495.5 311.5 C494.4 311.6 493.1 311.8 492.7 311.8 L492 312L492 312 L492 311.1C492 310.6 489.8 310.4 487.2 310.6 C484.6 310.8 478.5 311.8 473.7 312.7 C468.9 313.6 465 314.7 465 315.1 C465 315.6 465 316.2 465 316.5 L465 317L465 317 L460.5 317C458 317 455.7 317 455.5 317 L455 317L454.5 317.5 L454 318 L453.6 318C453.4 318 453.1 317.8 452.9 317.7 C452.6 317.5 451.2 317.5 449.7 317.7 L447 318L446.5 317.5 446.5 317.5 L446 318 L445.7 317.9C445.6 317.8 443.9 317.7 442 317.6 C440 317.4 437.6 317.6 436.5 318 C435.4 318.3 433.7 318.4 432.7 318.3 L431 318L430.5 318.5 L430 319 L428.5 319L427 319L426.5 318.5 426.5 318.5 L426 319 L423.4 318.3C422.1 318 416.1 317.6 410.2 317.5 C404.3 317.4 397.8 317.2 395.7 317.1 L392 317L392 317 L391.6 316.5C391.4 316.2 391 316 390.6 316 L390 316L390 316 L390 315.3C390 314.9 389.8 314.5 389.7 314.4 C389.6 314.2 386.7 313.4 383.3 312.5 C379.9 311.7 376.2 311 375.1 311 C373.9 311 373 311.2 373 311.5 C373 311.7 373 312.2 373 312.5 L373 313L373 313 L372.5 313C372.2 313 372 312.7 372 312.5 L372 312L372 311 L372 310.5C372 310.2 371.7 310 371.5 310 C371.2 310 371 310.4 371 311 L371 312L371 312 L370.7 311.9C370.6 311.8 369.7 311.7 368.8 311.5 C367.8 311.3 366.8 311.3 366.5 311.5 L366 312L365.5 311.5 L365 311 L364.5 311C364.2 311 363.7 311 363.5 311 L363 311L363 311 L362.2 310.2C361.8 309.8 361.2 309.2 361 308.9 C360.7 308.5 358.3 307.5 355.8 306.5 C353.2 305.5 350.6 305 350 305.3 L349 306L349 306 L349 305C349 304.4 348.7 304 348.5 304 C348.2 304 348 304.2 348 304.5 L348 305L348 305 L347.7 305.1C347.6 305.1 346.8 305.3 346 305.5 C345.1 305.7 343.9 305.6 343.2 305.4 L342 305L342 305 L341.6 304.5C341.4 304.2 341 304 340.6 304 L340 304L340 304 L340 303.3C340 302.9 339.4 302.2 338.7 301.7 C338 301.3 336.7 300.4 335.7 299.9 C334.5 299.2 334 299.2 334 299.9 L334 301L334 301 L330.5 300L327 299L327 299 L326.6 298.5C326.4 298.2 326 298 325.6 298 L325 298L325 298 L325 297.3C325 296.9 324.8 296.5 324.7 296.5 C324.6 296.4 323.3 295.5 322 294.6 C320.6 293.7 319.2 293 318.7 293 C318.3 293 318 293.2 318 293.5 L318 294L318 294 L317.5 294C317.2 294 316.5 294 316 294 C315.4 294 315 293.7 315 293.5 C315 293.2 314.7 293 314.5 293 L314 293L313.5 292.5 L313 292 L312.5 292C312.2 292 312 291.7 312 291.5 L312 291L312 291 L312 290.6C312 290.4 311.4 289.8 310.7 289.2 C310 288.7 308.9 287.9 308.2 287.5 C307.5 287.2 307 287.1 307 287.4 L307 288L307 288 L306.5 288C306.2 288 305.5 288 305 288 C304.4 288 304 287.7 304 287.5 C304 287.2 303.7 287 303.5 287 L303 287L302.5 286.5 L302 286 L301.5 286C301.2 286 301 285.7 301 285.5 L301 285L301 285 L301 284.6C301 284.4 300.1 283.5 299.1 282.6 C298.1 281.7 297 281.2 296.6 281.4 L296 282L296 282 L296 281C296 280.4 295.7 280 295.5 280 C295.2 280 295 280.2 295 280.5 L295 281L294 281.3 293 280.6 L293 280 L293 279.5C293 279.2 292.7 279 292.5 279 L292 279L292 279 L292 278.6C292 278.4 291.2 277.6 290.2 276.8 C289.2 275.9 287.9 274.9 287.2 274.5 C286.5 274.2 286 274.1 286 274.4 L286 275L285.6 275 285.2 274.7 L285 274 L285 273.5C285 273.2 284.7 273 284.5 273 L284 273L284 274 L283.5 274C283.2 274 283 273.7 283 273.5 L283 273L283 273 L283 272.3C283 271.9 282.4 271 281.8 270.3 C281.2 269.6 280.3 269 279.8 269 C279.3 269 279 269.2 279 269.5 L279 270L279 270 L277.5 268.5L276 267L276 266 L275.5 266C275.2 266 274.7 266 274.5 266 L274 266L274.2 265.7 273.6 265 L274 264 L272 263L270 262L270 262 L269 260.5L268 259L267.5 258.5 267 258 L267 258 L267 257.5C267 257.2 266.8 257 266.6 257 C266.4 257 266 256.7 265.6 256.5 L265 256L265 256 264.5 255.5 L264 255 L263.5 255C263.2 255 263 254.8 263 254.6 C263 254.4 262.7 254 262.5 253.6 L262 253L262 253 L262 252.5C262 252.2 261.7 252 261.5 252 L261 252L261 252 L261 251.5C261 251.2 260.7 251 260.5 251 L260 251L260 251 L260 250.5C260 250.2 259.7 250 259.5 250 L259 250L259 250 L259 249.5C259 249.2 258.8 249 258.6 249 C258.4 249 258 248.7 257.6 248.5 L257 248L257 248 L256.5 247.3C256.2 246.9 256 246.5 256 246.3 L256 246L256 246 L256 245.6C256 245.4 255.3 244.6 254.5 244 C253.6 243.3 253 243 253 243.3 L253 244L253 244 L252.4 243.5C252.1 243.3 251.7 242.5 251.6 241.8 C251.5 241.1 251.1 239.9 250.7 239.2 L250 238L250 238 L248 236L246 234L246 234 L246 233.6C246 233.4 246.3 233 246.6 232.6 C247 232.3 247 232 246.6 232 L246 232L246 231 245.5 230.5 L245 230 L244.5 229.3C244.2 228.9 244 228.5 244 228.3 L244 228L244 228 L244 227.5C244 227.2 244 226.8 244 226.6 C244 226.4 243.3 225.7 242.5 225.1 L241 224L241 224 L241 223.7C241 223.5 240.4 222.8 239.8 222.2 C239.1 221.5 238.9 221 239.2 221 C239.6 221 239.5 219.8 238.9 218.5 L238 216L238 216 L238 215.5C238 215.2 238 214.7 238 214.5 C238 214.2 237.8 214 237.7 214 C237.5 214 236.6 213.3 235.7 212.5 L234 211L234 211 L234 210.5C234 210.2 234.3 210 234.7 210 C235 210 234.8 209.4 234.2 208.8 C233.5 208.1 233 206.7 233 205.8 L233 204L233 204 L233.6 203.5C234 203.2 234.1 203 233.8 203 C233.5 203 233 202.7 232.6 202.5 L232 202L232 202 L232 201.5C232 201.2 231.9 200.4 231.9 199.7 C231.9 199 231 197.2 229.9 195.7 L228 193L228 192.6 227.7 192.2 L228 191 L228 190 L227.8 188.7C227.8 188 227.6 186.1 227.4 184.5 C227.3 182.8 226.9 180 226.5 178.2 L226 175L226 175 L224.5 169L223 163L223.3 163 222.7 162.2 L222.5 161.5 L222 161 L221.9 143.7C221.9 134.2 222.1 118.5 222.4 108.7 L223 91L223 91 L223.5 88.7C223.8 87.5 224.5 83.4 225 79.8 C225.5 76.1 226 72.1 226 71 L226 69L226 69 L226.5 67.3C226.8 66.4 227.2 59.1 227.5 51 C227.8 43 228.2 34.1 228.5 31.2 L229 26L229 26 L229.4 26C229.6 26 230 21.6 230.4 16.2 C230.7 10.8 231.2 5 231.5 3.2 L232 0L232 0 L727 0C999.2 0 1222.2 0 1222.5 0 C1222.7 0 1225 0 1227.5 0 L1232 0L1232 0 L1232 1.8C1232 2.8 1233.1 5.4 1234.5 7.5 C1236 9.6 1238.2 13.6 1239.6 16.4 C1240.9 19.2 1242.6 22.6 1243.4 24 C1244.2 25.3 1246.2 29.4 1247.9 33 C1249.6 36.6 1251 40.2 1251 41 C1251 41.8 1252.1 44.9 1253.6 48 C1255 51 1256.7 55.7 1257.5 58.5 C1258.2 61.2 1259.6 65.7 1260.7 68.5 C1261.8 71.2 1263.5 76.4 1264.4 80 C1265.3 83.5 1266.7 89.2 1267.4 92.5 C1268.2 95.8 1269.9 106.3 1271.3 116 C1272.8 125.8 1274.1 140 1274.3 148.3 C1274.6 156.5 1274.3 168 1273.9 173.8 C1273.4 179.7 1272 189.4 1270.9 195.5 C1269.8 201.5 1268.2 208.9 1267.5 212 C1266.7 215 1265.3 220.4 1264.4 224 C1263.5 227.5 1261.4 233.9 1259.8 238.1 C1258.2 242.4 1257 246.7 1257 247.8 C1257 248.8 1255.8 251.7 1254.5 254.3 C1253.2 256.8 1251.5 260.8 1250.9 263.2 C1250.3 265.5 1249 268.8 1248 270.5 C1247 272.2 1245.6 275.4 1245 277.5 C1244.3 279.7 1243.1 282.1 1242.3 283 C1241.6 283.9 1240.3 286.5 1239.5 288.8 C1238.7 291.2 1237.1 294.3 1236.1 295.8 C1235.1 297.2 1233.7 300.1 1233.1 302.1 C1232.4 304.1 1231 306.5 1230 307.4 C1229 308.3 1227.8 310.3 1227.5 311.8 C1227.1 313.2 1225.6 316.4 1224.1 318.7 C1222.7 321.1 1220.4 324.5 1219.2 326.2 C1218 328 1216.2 331 1215.3 332.9 C1214.5 334.9 1212.6 337.7 1211.3 339.3 C1210 340.8 1209 342.7 1209 343.4 C1209 344.1 1207.6 346.4 1206 348.4 C1204.3 350.5 1203 352.8 1203 353.4 C1203 354.1 1201.6 356.4 1200 358.4 C1198.3 360.5 1197 362.6 1197 363.1 C1197 363.5 1194 368.3 1190.5 373.7 C1186.9 379.1 1183.1 384.8 1181.9 386.5 C1180.8 388.1 1178.8 391 1177.6 392.9 C1176.4 394.7 1174.2 398.1 1172.7 400.4 C1171.2 402.6 1169.1 406 1167.9 408 C1166.8 409.9 1164.9 412.9 1163.7 414.6 C1162.4 416.3 1160.7 419 1159.7 420.6 C1158.7 422.2 1156.6 425.5 1155 428 C1153.3 430.4 1151.2 434 1150.3 436 C1149.3 437.9 1147.6 440.8 1146.5 442.4 C1145.4 444 1143.5 447.2 1142.3 449.4 C1141.1 451.6 1139 455.7 1137.6 458.5 C1136.3 461.3 1134.5 464.1 1133.7 464.8 C1132.8 465.5 1131.8 467.2 1131.5 468.7 C1131.1 470.2 1129.5 473.2 1127.9 475.4 C1126.3 477.6 1125 480.1 1125 480.9 C1125 481.8 1123.8 484.1 1122.5 486.1 C1121.2 488.1 1119.7 491 1119.4 492.6 C1119 494.2 1117.8 496.7 1116.7 498.3 C1115.6 499.8 1114.1 503.1 1113.3 505.6 C1112.6 508.1 1111.1 511.6 1110.1 513.3 C1109 515 1107.8 518 1107.4 520 C1107 521.9 1105.7 525.5 1104.4 528 C1103.2 530.4 1101.9 534.5 1101.5 537 C1101.1 539.4 1099.8 543.7 1098.8 546.5 C1097.7 549.2 1096 556.2 1094.9 562 C1093.9 567.7 1092.4 574.7 1091.6 577.5 C1090.8 580.2 1089.6 589.7 1088.9 598.6 C1087.9 611.5 1087.9 618.4 1088.9 632.9 C1089.5 642.9 1090.7 653.4 1091.5 656.2 C1092.3 659.1 1093.8 665.5 1094.8 670.5 C1095.9 675.4 1097.6 681.5 1098.7 684 C1099.8 686.4 1101 690.3 1101.4 692.5 C1101.8 694.7 1102.9 697.8 1103.9 699.5 C1104.9 701.1 1106.4 705 1107.3 708.1 C1108.2 711.2 1109.6 714.2 1110.4 714.9 C1111.3 715.6 1112.4 718 1113 720.3 C1113.7 722.6 1115 725.7 1116.1 727.1 C1117.2 728.6 1118.5 731.3 1119.1 733.2 C1119.7 735 1121 737.4 1122 738.5 C1123 739.6 1124.5 742.1 1125.4 744.1 C1126.2 746.2 1127.4 748.1 1128 748.5 C1128.7 748.9 1130 751.2 1131.1 753.5 C1132.1 755.9 1133.4 758.1 1134 758.5 C1134.5 758.8 1137.1 762.3 1139.7 766.3 C1142.4 770.3 1147 776.7 1150 780.5 C1153 784.3 1166.3 798.3 1179.5 811.6 C1192.7 824.9 1208.1 839.8 1213.8 844.6 C1219.5 849.5 1225.9 854.6 1227.9 856 C1230 857.3 1233.4 859.6 1235.6 861.1 C1237.7 862.5 1240.1 864.4 1240.8 865.3 C1241.6 866.2 1242.6 867 1243.1 867 C1243.6 867 1246.2 868.4 1248.9 870.2 C1251.6 872 1256.1 874.8 1258.9 876.5 C1261.8 878.1 1265.5 880.5 1267.3 881.7 C1269 882.9 1271.5 884.4 1272.8 884.9 C1274.1 885.5 1276.3 886.9 1277.7 888 C1279.1 889.1 1282.1 890.9 1284.4 892 C1286.6 893.1 1289.6 894.6 1291 895.5 C1292.3 896.3 1295 897.6 1297 898.5 C1298.9 899.3 1301.6 900.6 1303 901.5 C1304.3 902.3 1307 903.6 1309 904.5 C1310.9 905.3 1313.6 906.6 1315 907.4 C1316.3 908.1 1320.3 910.2 1323.8 911.9 C1327.4 913.6 1331 915 1331.9 915 C1332.9 915 1335.7 916.1 1338.3 917.4 C1340.8 918.7 1345.1 920.5 1347.8 921.3 C1350.5 922.1 1353.9 923.5 1355.2 924.4 C1356.5 925.3 1360.2 926.6 1363.3 927.5 C1366.5 928.3 1370.8 929.8 1372.9 930.9 C1375.1 932 1377.6 933 1378.5 933 C1379.4 933 1383.1 934.2 1386.8 935.8 C1390.4 937.4 1395.5 939 1398 939.4 C1400.4 939.7 1403.1 940.4 1403.9 940.9 C1405 941.6 1405.1 942.1 1404.1 943.2 C1403.5 944 1403 945.2 1403 945.8 L1403 947L1403 947 L1401.7 947.1C1401 947.1 1400 947.3 1399.5 947.4 C1398.9 947.5 1398.1 947.7 1397.7 947.8 L1397 948L1397 948 L1397 947.3C1397 946.9 1396.8 946.5 1396.6 946.2 C1396.4 946 1394 946.6 1391.3 947.5 C1388.6 948.4 1385.4 949.8 1384.2 950.6 C1383 951.4 1382 952.2 1382 952.5 L1382 953L1382 952.6 1381.2 952.7 L1380.5 952.5 1380.5 952.5 L1380 953 L1379.4 953C1379 953 1378.4 953.2 1377.9 953.5 L1377 954L1377 954 L1377 953C1377 952.4 1376.1 952 1375 952 C1373.9 952 1371.8 952.5 1370.2 953.2 C1368.7 953.8 1366.3 955.1 1365 956 C1363.6 957 1361.7 958 1360.7 958.3 L1359 959L1359 959 L1358.6 959C1358.4 959 1358.1 958.8 1357.9 958.6 C1357.6 958.4 1356.9 958.4 1356.2 958.6 L1355 959L1355 959 L1355 958.4C1355 958.1 1353.5 958.1 1351.7 958.5 C1349.9 958.9 1347.2 959.8 1345.7 960.6 C1344.2 961.4 1343 962.2 1343 962.5 C1343 962.7 1343 963.2 1343 963.5 L1343 964L1343 964 L1342.5 964C1342.2 964 1342 964.2 1342 964.5 C1342 964.7 1341.5 965 1341 965 C1340.4 965 1339.7 965 1339.5 965 L1339 965L1339 965 L1339 964.5C1339 964.2 1338.3 964 1337.5 964 C1336.6 964 1336 964.2 1336 964.5 L1336 965L1335.7 964.7 1335 965.3 L1334 965 L1334 964.5C1334 964.2 1333.3 964 1332.4 964 C1331.6 964 1329.4 964.6 1327.5 965.3 C1325.7 966.1 1323.9 967.2 1323.6 967.8 C1323.2 968.3 1323 969 1323 969.4 L1323 970L1323 970 L1321.7 970.1C1321 970.1 1320 970.3 1319.5 970.4 C1318.9 970.5 1317.2 970.7 1315.7 970.8 L1313 971L1313 971 L1313 970.5C1313 970.2 1312.2 970 1311.2 970 C1310.2 970 1307.5 970.9 1305.2 971.9 C1302.9 973 1301 974.1 1301 974.4 C1301 974.7 1301 975.2 1301 975.5 L1301 976L1301 976 L1300.5 976C1300.2 976 1299.6 976 1299.1 976 C1298.7 976 1298 976.2 1297.6 976.5 L1297 977L1297 977 L1297 976.5C1297 976.2 1296.3 976 1295.5 976 C1294.6 976 1294 976.2 1294 976.5 L1294 977L1293.7 976.7 1293 977.3 L1292 977 L1292 976.5C1292 976.2 1291.3 976 1290.6 976 C1289.8 976 1287.6 976.6 1285.6 977.4 C1283.7 978.3 1281.8 979.3 1281.5 979.8 C1281.2 980.3 1281 981 1281 981.4 L1281 982L1281 982 L1279.9 982C1279.3 982 1278.4 982.2 1278 982.4 C1277.6 982.7 1276.9 982.7 1276.6 982.4 L1276 982L1275.5 982.5 1274.7 982.7 L1274.7 982.7 1274 982.6 L1274 982 L1274 981.5C1274 981.2 1272.5 981.3 1270.7 981.6 C1268.9 982 1266 982.9 1264.3 983.6 C1262.5 984.3 1260.8 985.3 1260.5 985.8 C1260.2 986.3 1260 987 1260 987.4 L1260 988L1260 988 L1259.2 988C1258.8 988 1257.5 988.2 1256.4 988.5 C1255.3 988.8 1254.1 988.8 1253.7 988.5 L1253 988L1253 988 L1253 987.5C1253 987.2 1251.5 987.3 1249.7 987.6 C1247.9 988 1244.8 989.1 1242.7 990.1 C1240.6 991.1 1239 992.2 1239 992.5 C1239 992.7 1239 993.2 1239 993.5 L1239 994L1239 994 L1237.5 994C1236.6 994 1235.7 994 1235.5 994 C1235.2 994 1234.7 994 1234.5 994 L1234 994L1233.5 994.5 1232.7 994.7 L1232.7 994.7 1232 994.6 L1232 994 L1232 993.5C1232 993.2 1230.5 993.3 1228.7 993.6 C1226.9 994 1223.8 995.1 1221.7 996.1 C1219.6 997.1 1218 998.2 1218 998.5 L1218 999L1218 1000 1217.1 1000.3 L1216 1000 L1214.7 1000.5C1214 1000.7 1212.9 1001 1212.2 1001 L1211 1001L1211 1001 L1211 1000.3C1211 999.9 1210.8 999.5 1210.7 999.3 C1210.5 999.2 1208.1 999.7 1205.2 1000.5 C1202.4 1001.4 1199.6 1002.6 1199 1003.4 C1198.4 1004.1 1198 1004.9 1198 1005.3 L1198 1006L1198 1006 L1197.2 1005.9C1196.8 1005.9 1195.4 1006.1 1194.2 1006.4 L1192 1007L1192 1007 L1191.3 1006.2C1191 1005.8 1189.4 1005.6 1187.7 1005.8 C1186.1 1006 1183 1007 1180.8 1008.1 C1178.7 1009.2 1177 1010.3 1177 1010.6 C1177 1010.8 1177 1011.2 1177 1011.5 L1177 1012L1177 1012 L1175 1012.1C1173.9 1012.1 1172.5 1012.3 1172 1012.5 C1171.4 1012.6 1170.7 1012.8 1170.5 1012.8 L1170 1013L1170 1013 L1170 1012C1170 1011.4 1168.6 1011.3 1166.7 1011.6 C1164.9 1012 1161.8 1013.1 1159.7 1014.1 C1157.6 1015.1 1156 1016.2 1156 1016.5 C1156 1016.7 1156 1017.2 1156 1017.5 L1156 1018L1156 1018 L1152.7 1018.4C1150.9 1018.6 1149.3 1018.8 1149.2 1018.9 L1149 1019L1149 1019 L1149 1018.3C1149 1017.9 1148.8 1017.5 1148.7 1017.3 C1148.5 1017.2 1146.1 1017.7 1143.2 1018.5 C1140.4 1019.4 1137.6 1020.6 1137 1021.4 C1136.4 1022.1 1136 1022.9 1136 1023.3 L1136 1024L1136 1024 L1134.7 1024C1134 1024 1132.5 1024.2 1131.4 1024.5 C1130.3 1024.8 1129.1 1024.8 1128.7 1024.5 L1128 1024L1128 1024 L1128 1023.4C1128 1023.1 1126.7 1023.2 1125.2 1023.6 C1123.7 1024 1121 1024.9 1119.3 1025.6 C1117.5 1026.3 1115.8 1027.3 1115.5 1027.8 C1115.2 1028.3 1115 1029 1115 1029.4 L1115 1030L1115 1030 L1111.7 1030.4C1109.9 1030.6 1108.3 1030.8 1108.2 1030.9 L1108 1031L1108 1031 L1108 1030C1108 1029.4 1106.6 1029.3 1104.7 1029.6 C1102.9 1030 1099.8 1031.1 1097.7 1032.1 C1095.6 1033.1 1094 1034.2 1094 1034.5 C1094 1034.7 1094 1035.2 1094 1035.5 L1094 1036L1094 1036 L1092.9 1036C1092.3 1036 1091.4 1036.2 1091 1036.4 C1090.6 1036.7 1089.9 1036.7 1089.6 1036.4 L1089 1036L1088.5 1036.5 1087.7 1036.7 L1087.7 1036.7 1087 1036.6 L1087 1036 L1087 1035.3C1087 1035 1086.3 1035 1085.5 1035.3 C1084.7 1035.6 1082.3 1036.3 1080.2 1036.9 C1078.1 1037.4 1075.6 1038.5 1074.7 1039.2 C1073.7 1039.9 1072.9 1040.8 1072.9 1041.2 L1073 1042L1073 1042 L1072.5 1042C1072.2 1042 1071.7 1042 1071.5 1042 L1071 1042L1070.5 1042.5 L1070 1043 L1068 1043L1066 1043L1066 1043 L1066 1042.3C1066 1041.9 1065.8 1041.5 1065.7 1041.3 C1065.5 1041.2 1063.6 1041.5 1061.4 1042.1 C1059.2 1042.6 1056.4 1043.8 1055.2 1044.8 C1054 1045.7 1053 1046.8 1053 1047.2 L1053 1048L1053 1048 L1052.2 1047.9C1051.8 1047.9 1050 1048.1 1048.2 1048.4 L1045 1049L1045 1049 L1045 1047.9C1045 1047.3 1043.8 1047.2 1042.2 1047.6 C1040.7 1048 1037.8 1049.1 1035.7 1050.2 C1033.6 1051.3 1032 1052.3 1032 1052.6 C1032 1052.8 1032 1053.2 1032 1053.5 L1032 1054L1032 1054 L1030 1054L1028 1054L1027.5 1054.5 L1027 1055 L1026.5 1055C1026.2 1055 1025.7 1055 1025.5 1055 L1025 1055L1025 1055 L1025 1054.3C1025 1053.9 1024.8 1053.4 1024.5 1053.2 C1024.3 1052.9 1021.6 1053.5 1018.5 1054.5 C1015.5 1055.4 1012.5 1056.8 1012 1057.4 C1011.4 1058.1 1011 1058.9 1011 1059.3 L1011 1060L1011 1060 L1009 1060L1007 1060L1006 1060 1005.5 1060.5 L1005 1061 L1003.7 1060.5C1003 1060.3 1002.3 1060.1 1002.2 1060 L1002 1060L1002 1060 L1002 1059.5C1002 1059.2 1000.5 1059.3 998.7 1059.6 C996.9 1059.9 993.5 1061 991.2 1062 C988.9 1063 987 1064.1 987 1064.4 C987 1064.7 987 1065.2 987 1065.5 L987 1066L987 1066 L985 1066.1C983.9 1066.1 982.5 1066.3 982 1066.5 C981.4 1066.6 980.5 1066.8 980 1066.8 L979 1067L979 1067 L979 1065.9C979 1065.2 977.6 1065.1 975.2 1065.5 C973.1 1065.9 969.5 1067 967.2 1068 C964.9 1069 963 1070.1 963 1070.4 C963 1070.7 963 1071.2 963 1071.5 L963 1072L963 1072 L959.7 1072.4C957.9 1072.6 956.3 1072.8 956.2 1072.9 L956 1073L956 1073 L956 1072.5C956 1072.3 955.6 1071.8 955.1 1071.6 C954.7 1071.3 949.3 1072 943.1 1073.1 C937 1074.3 932 1075.6 932 1076.1 C932 1076.6 932 1077.2 932 1077.5 L932 1078L932 1078 L931.5 1078C931.2 1078 929.3 1078 927.2 1078 C925.1 1078 921.8 1078.2 919.7 1078.5 L916 1079L916 1078 L915.5 1078C915.2 1078 914.7 1078 914.5 1078 L914 1078L914 1079 L912 1079L910 1079L910 1079 L910 1078.5C910 1078.2 910 1077.8 910 1077.6 C910 1077.4 906.7 1077.4 902.7 1077.6 C898.7 1077.9 890.3 1078.8 884 1079.6 C873.7 1080.9 871.4 1080.9 860.5 1079.4 C853.9 1078.5 846.5 1078.1 844.2 1078.4 L840 1079"/>
 </g>
</svg>